<?xml version="1.0" encoding="UTF-8" standalone="no"?>
<!-- Generator: Adobe Illustrator 19.0.0, SVG Export Plug-In . SVG Version: 6.00 Build 0)  -->
<svg id="Layer_1" style="enable-background:new 0 0 512 512" xmlns="http://www.w3.org/2000/svg" xml:space="preserve" viewBox="0 0 512 512" version="1.1" y="0px" x="0px" xmlns:xlink="http://www.w3.org/1999/xlink">
<path d="m476.69 512h-441.38c-19.42 0-35.31-15.89-35.31-35.31v-441.38c0-19.42 15.89-35.31 35.31-35.31h441.38c19.42 0 35.31 15.89 35.31 35.31v441.38c0 19.42-15.89 35.31-35.31 35.31" fill="#4D6FA9"/>
<path d="m432.55 88.276v88.276h-79.448c-9.71 0-17.655 7.945-17.655 17.655v52.966h88.276v88.276h-88.276v176.55h-88.276v-176.55h-70.621v-88.276h70.621v-52.966c0-55.614 42.372-101.52 97.103-105.93h88.29z" fill="#fff"/>
</svg>
