<?xml version="1.0" encoding="UTF-8" standalone="no"?>
<!-- Generator: Gravit.io -->
<svg style="isolation:isolate" xmlns="http://www.w3.org/2000/svg" height="150" width="150" xmlns:xlink="http://www.w3.org/1999/xlink" viewBox="0 0 150 150">
 <g id="null">
  <path d="m150 137.95c0 6.65-5.39 12.05-12.05 12.05h-125.9c-6.655 0-12.05-5.4-12.05-12.05v-125.9c0-6.656 5.395-12.05 12.048-12.05h125.9c6.66 0 12.05 5.394 12.05 12.048v125.9z" fill="#30bf39"/>
  <path fill="#fff" d="m76.068 16.726c-31.991 0-57.93 25.936-57.93 57.932 0 10.946 3.04 21.182 8.315 29.912l-10.458 31.08 32.073-10.26c8.301 4.58 17.845 7.2 28 7.2 32.002 0 57.932-25.94 57.932-57.932 0-31.996-25.93-57.932-57.932-57.932zm0 106.16c-9.79 0-18.915-2.94-26.529-7.98l-18.534 5.93 6.024-17.91c-5.773-7.945-9.183-17.716-9.183-28.272 0-26.595 21.634-48.229 48.222-48.229 26.592 0 48.232 21.634 48.232 48.229 0 26.592-21.64 48.232-48.232 48.232zm27.162-35.069c-1.45-0.795-8.583-4.646-9.92-5.188-1.335-0.545-2.315-0.826-3.358 0.619-1.038 1.437-4.001 4.663-4.895 5.616-0.901 0.957-1.768 1.049-3.223 0.25-1.446-0.794-6.156-2.537-11.615-7.784-4.249-4.085-7.035-9.037-7.841-10.55-0.813-1.513-0.006-2.282 0.761-2.991 0.691-0.64 1.545-1.676 2.318-2.508 0.766-0.834 1.037-1.443 1.567-2.41 0.531-0.968 0.316-1.839-0.027-2.595-0.342-0.752-3.027-8.139-4.146-11.147-1.122-3.005-2.372-2.561-3.234-2.594-0.863-0.028-1.844-0.189-2.828-0.228-0.99-0.037-2.606 0.273-4.013 1.702-1.412 1.427-5.369 4.861-5.639 12.141-0.274 7.276 4.762 14.504 5.465 15.515 0.702 1.017 9.612 16.789 24.418 23.272 14.816 6.489 14.895 4.509 17.61 4.369 2.721-0.15 8.88-3.26 10.25-6.66 1.36-3.405 1.47-6.367 1.12-6.994-0.34-0.633-1.32-1.041-2.77-1.835" fill-rule="evenodd"/>
 </g>
</svg>
