<?xml version="1.0" encoding="UTF-8" standalone="no"?>
<!-- Generator: Gravit.io -->
<svg xmlns="http://www.w3.org/2000/svg" xmlns:xlink="http://www.w3.org/1999/xlink" style="isolation:isolate" viewBox="0 0 200 201" width="200" height="201"><g style="isolation:isolate" id="itv"><defs><filter id="pbaqQ4dx7MRY7B4snstGhFi6YYI9zHw0" x="-200%" y="-200%" width="400%" height="400%"><feOffset xmlns="http://www.w3.org/2000/svg" in="SourceAlpha" result="offOut" dx="2" dy="2"/><feGaussianBlur xmlns="http://www.w3.org/2000/svg" in="offOut" result="blurOut" stdDeviation="2"/><feComponentTransfer xmlns="http://www.w3.org/2000/svg" in="blurOut" result="opacOut"><feFuncA xmlns="http://www.w3.org/2000/svg" type="table" tableValues="0 0.5"/></feComponentTransfer><feBlend xmlns="http://www.w3.org/2000/svg" in="SourceGraphic" in2="opacOut" mode="normal"/></filter></defs><g filter="url(#pbaqQ4dx7MRY7B4snstGhFi6YYI9zHw0)"><path d=" M 137.463 119.262 C 132.451 127.284 117.577 133.134 99.998 133.134 C 81.851 133.134 66.54 126.881 62.097 118.432 L 70.219 116.237 L 70.219 104.611 C 79.042 110.891 89.804 114.316 100.8 114.316 C 111.262 114.316 121.223 111.346 129.778 105.683 L 129.778 116.778 L 137.463 119.262" fill="rgb(66,66,66)"/></g><path d=" M 153.339 66.381 C 152.273 71.885 149.128 75.628 146.655 76.352 L 145.016 76.862 L 144.584 78.198 C 141.61 87.609 135.56 96.028 127.538 101.884 C 119.72 107.633 110.492 110.681 100.8 110.681 C 90.441 110.681 80.677 107.255 72.591 100.759 C 65.274 94.932 59.925 87.15 57.084 78.249 L 56.619 76.836 L 54.876 76.381 C 54.844 76.381 54.74 76.323 54.511 76.218 C 52.135 75.095 49.262 71.567 48.296 66.355 C 47.724 63.33 47.892 60.395 48.729 58.096 L 53.041 57.427 L 53.373 57.291 C 53.606 57.238 54.175 57.102 55.28 56.946 L 57.653 59.833 L 58.053 60.472 L 58.386 60.683 L 59.324 61.859 C 61.796 64.833 64.336 67.262 71.152 67.262 L 73.525 67.262 L 74.999 66.622 C 76.101 66.247 84.556 65.15 100.8 65.15 C 116.876 65.15 125.534 66.273 126.837 66.673 L 128.139 67.262 L 130.511 67.262 C 137.195 67.262 139.739 64.936 142.143 62.131 L 143.417 60.551 L 143.517 60.443 L 143.918 59.938 L 146.39 56.946 C 147.428 57.102 147.961 57.238 148.194 57.291 L 148.562 57.397 L 152.974 58.388 C 153.711 60.661 153.876 63.494 153.339 66.381 L 153.339 66.381 Z  M 155.579 56.192 L 149.596 54.856 L 149.296 54.779 C 148.73 54.616 147.457 54.327 144.816 54 L 141.073 58.522 L 140.941 58.734 L 140.773 58.869 L 140.208 59.59 C 139.907 59.962 139.639 60.311 139.37 60.632 C 137.195 63.173 135.495 64.593 130.511 64.593 L 129.009 64.593 L 128.271 64.266 C 126.805 63.651 117.212 62.475 100.8 62.475 C 84.96 62.475 75.099 63.545 73.392 64.266 L 72.659 64.593 L 71.152 64.593 C 66.04 64.593 64.369 63.119 62.165 60.443 C 61.928 60.153 61.696 59.856 61.428 59.535 L 60.891 58.869 L 60.726 58.763 L 60.558 58.494 L 56.848 54 C 54.175 54.327 52.905 54.616 52.336 54.754 L 52.039 54.856 L 46.253 55.766 C 44.718 58.574 44.182 62.503 44.983 66.754 C 46.021 72.316 49.13 76.778 52.704 78.464 C 53.073 78.653 53.441 78.814 53.842 78.917 C 56.848 88.381 62.63 96.617 70.219 102.66 C 78.609 109.37 89.236 113.354 100.8 113.354 C 111.63 113.354 121.659 109.851 129.778 103.861 C 138.2 97.714 144.619 88.996 147.829 78.865 C 151.872 77.664 155.482 72.849 156.652 66.754 C 157.386 62.718 156.917 58.949 155.579 56.192" fill="rgb(66,66,66)"/><defs><filter id="kWzZvGyZah8Lms61q4EqtJixTvUjtTOx" x="-200%" y="-200%" width="400%" height="400%"><feOffset xmlns="http://www.w3.org/2000/svg" in="SourceAlpha" result="offOut" dx="2" dy="2"/><feGaussianBlur xmlns="http://www.w3.org/2000/svg" in="offOut" result="blurOut" stdDeviation="2"/><feComponentTransfer xmlns="http://www.w3.org/2000/svg" in="blurOut" result="opacOut"><feFuncA xmlns="http://www.w3.org/2000/svg" type="table" tableValues="0 0.5"/></feComponentTransfer><feBlend xmlns="http://www.w3.org/2000/svg" in="SourceGraphic" in2="opacOut" mode="normal"/></filter></defs><g filter="url(#kWzZvGyZah8Lms61q4EqtJixTvUjtTOx)"><path d=" M 25.165 174.305 L 53.842 174.305 L 53.842 154.633 L 146.791 154.633 L 146.791 174.305 L 175 174.305 L 175 195 L 25 195 L 25 174.305 L 25.165 174.305 Z " fill="rgb(66,66,66)"/></g><path d=" M 39.505 168.854 C 35.559 168.854 32.349 166.284 32.349 163.106 C 32.349 159.951 35.559 157.383 39.505 157.383 C 43.48 157.383 46.686 159.951 46.686 163.106 C 46.686 166.284 43.48 168.854 39.505 168.854 Z  M 28.506 122.496 L 28.506 171.635 L 50.5 171.635 L 50.5 117.041 L 28.506 122.496 Z " fill="rgb(46,161,219)"/><path d=" M 161.128 168.854 C 157.153 168.854 153.979 166.284 153.979 163.106 C 153.979 159.951 157.153 157.383 161.128 157.383 C 165.071 157.383 168.281 159.951 168.281 163.106 C 168.281 166.284 165.071 168.854 161.128 168.854 Z  M 150.133 117.041 L 150.133 171.635 L 172.123 171.635 L 172.123 122.496 L 150.133 117.041 Z " fill="rgb(46,161,219)"/><defs><filter id="MdBgZg8Qhx2os1Ool3lKAq3QoUkKYoAH" x="-200%" y="-200%" width="400%" height="400%"><feOffset xmlns="http://www.w3.org/2000/svg" in="SourceAlpha" result="offOut" dx="2" dy="2"/><feGaussianBlur xmlns="http://www.w3.org/2000/svg" in="offOut" result="blurOut" stdDeviation="2"/><feComponentTransfer xmlns="http://www.w3.org/2000/svg" in="blurOut" result="opacOut"><feFuncA xmlns="http://www.w3.org/2000/svg" type="table" tableValues="0 0.5"/></feComponentTransfer><feBlend xmlns="http://www.w3.org/2000/svg" in="SourceGraphic" in2="opacOut" mode="normal"/></filter></defs><g filter="url(#MdBgZg8Qhx2os1Ool3lKAq3QoUkKYoAH)"><path d=" M 152.004 35.102 L 152.004 51.464 C 152.004 50.716 149.063 50.044 143.918 49.488 C 143.682 49.457 143.417 49.431 143.181 49.406 L 138.233 55.392 C 138.2 55.418 138.2 55.447 138.168 55.473 C 135.027 59.299 134.69 60.206 130.511 60.206 L 129.846 60.206 C 127.033 59.002 115.072 58.092 100.8 58.092 C 86.563 58.092 74.698 58.973 71.825 60.206 L 71.152 60.206 C 66.945 60.206 66.608 59.299 63.503 55.473 C 63.467 55.447 63.467 55.418 63.435 55.392 L 58.451 49.406 C 58.218 49.431 57.953 49.457 57.717 49.488 C 52.608 50.044 49.631 50.716 49.631 51.464 L 49.631 35.102 C 49.631 17.163 72.526 5 100.8 5 C 129.076 5 152.004 17.163 152.004 35.102 Z " fill="rgb(46,161,219)"/></g></g></svg>