<?xml version="1.0" encoding="UTF-8" standalone="no"?>
<!-- Generator: Gravit.io -->
<svg xmlns="http://www.w3.org/2000/svg" xmlns:xlink="http://www.w3.org/1999/xlink" style="isolation:isolate" viewBox="0 0 201 201" width="201" height="201"><g style="isolation:isolate" id="transmision"><path d=" M 100.818 127.666 L 100.85 127.666 L 100.85 134.873 L 96.714 134.873 L 100.818 127.666 Z " fill="rgb(46,161,219)"/><path d=" M 139.151 71.403 C 138.849 72.071 138.417 72.638 137.883 73.105 C 137.348 73.539 136.715 73.906 135.947 74.139 C 135.212 74.373 134.378 74.506 133.445 74.506 C 132.977 74.506 132.512 74.473 132.077 74.41 C 131.644 74.34 131.243 74.276 130.91 74.173 C 130.543 74.106 130.274 74.006 130.042 73.906 C 129.809 73.806 129.675 73.739 129.608 73.672 C 129.542 73.606 129.476 73.539 129.44 73.472 C 129.408 73.405 129.408 73.305 129.374 73.205 C 129.341 73.105 129.341 72.972 129.341 72.838 C 129.341 72.671 129.308 72.504 129.308 72.307 C 129.308 72.071 129.341 71.87 129.341 71.704 C 129.374 71.57 129.374 71.437 129.44 71.34 C 129.476 71.236 129.508 71.17 129.542 71.136 C 129.608 71.103 129.641 71.073 129.709 71.073 C 129.809 71.073 129.943 71.103 130.109 71.206 C 130.242 71.303 130.475 71.403 130.742 71.503 C 131.009 71.637 131.343 71.737 131.744 71.837 C 132.111 71.907 132.578 71.97 133.111 71.97 C 133.578 71.97 134.012 71.907 134.412 71.804 C 134.78 71.704 135.113 71.57 135.38 71.34 C 135.648 71.136 135.848 70.869 135.98 70.536 C 136.148 70.239 136.215 69.835 136.215 69.404 C 136.215 69.001 136.148 68.667 136.014 68.333 C 135.915 68.033 135.714 67.799 135.447 67.566 C 135.212 67.366 134.88 67.232 134.445 67.099 C 134.046 66.999 133.544 66.965 132.945 66.965 C 132.478 66.965 132.044 66.965 131.678 67.035 C 131.277 67.065 130.943 67.099 130.609 67.099 C 130.376 67.099 130.175 67.035 130.109 66.932 C 129.976 66.798 129.943 66.598 129.943 66.265 L 129.943 59.457 C 129.943 59.157 130.01 58.923 130.142 58.79 C 130.242 58.623 130.442 58.56 130.742 58.56 L 138.15 58.56 C 138.216 58.56 138.284 58.59 138.35 58.623 C 138.417 58.693 138.482 58.757 138.516 58.857 C 138.549 58.99 138.582 59.124 138.615 59.29 C 138.615 59.457 138.65 59.661 138.65 59.925 C 138.65 60.392 138.582 60.759 138.516 60.959 C 138.417 61.196 138.317 61.293 138.15 61.293 L 132.578 61.293 L 132.578 64.629 C 132.844 64.596 133.145 64.596 133.412 64.596 C 133.712 64.563 133.98 64.563 134.312 64.563 C 135.146 64.563 135.881 64.666 136.548 64.863 C 137.215 65.063 137.748 65.367 138.216 65.731 C 138.65 66.131 138.984 66.598 139.217 67.169 C 139.449 67.736 139.583 68.4 139.583 69.134 C 139.583 70.002 139.449 70.736 139.151 71.403 L 139.151 71.403 Z  M 103.518 73.238 C 102.985 73.639 102.352 73.976 101.618 74.173 C 100.884 74.41 100.05 74.506 99.182 74.506 C 98.648 74.506 98.147 74.473 97.68 74.373 C 97.214 74.306 96.813 74.206 96.447 74.106 C 96.078 74.006 95.78 73.873 95.546 73.739 C 95.312 73.639 95.145 73.539 95.078 73.472 C 95.012 73.405 94.946 73.339 94.913 73.272 C 94.878 73.172 94.845 73.072 94.845 72.972 C 94.811 72.875 94.779 72.741 94.779 72.571 C 94.745 72.404 94.745 72.204 94.745 71.97 C 94.745 71.57 94.779 71.303 94.845 71.17 C 94.913 71.003 95.012 70.939 95.145 70.939 C 95.211 70.939 95.346 71.003 95.546 71.103 C 95.747 71.206 96.012 71.34 96.312 71.437 C 96.614 71.57 96.98 71.704 97.38 71.804 C 97.814 71.907 98.282 71.97 98.781 71.97 C 99.249 71.97 99.615 71.907 99.95 71.804 C 100.316 71.704 100.583 71.537 100.818 71.37 C 101.05 71.17 101.25 70.939 101.351 70.669 C 101.484 70.402 101.55 70.105 101.55 69.768 C 101.55 69.404 101.451 69.067 101.317 68.8 C 101.184 68.5 100.983 68.267 100.684 68.033 C 100.416 67.833 100.083 67.666 99.649 67.566 C 99.216 67.466 98.714 67.399 98.147 67.399 L 96.779 67.399 C 96.68 67.399 96.614 67.399 96.513 67.366 C 96.447 67.332 96.38 67.266 96.346 67.199 C 96.312 67.099 96.279 66.965 96.246 66.798 C 96.212 66.665 96.212 66.468 96.212 66.201 C 96.212 65.964 96.212 65.764 96.246 65.634 C 96.279 65.464 96.312 65.367 96.346 65.297 C 96.38 65.197 96.447 65.13 96.513 65.13 C 96.581 65.1 96.647 65.063 96.746 65.063 L 98.115 65.063 C 98.58 65.063 99.015 64.996 99.381 64.896 C 99.749 64.8 100.05 64.629 100.284 64.429 C 100.517 64.229 100.716 63.995 100.85 63.698 C 100.983 63.432 101.05 63.095 101.05 62.761 C 101.05 62.494 100.983 62.227 100.917 61.993 C 100.818 61.763 100.684 61.56 100.517 61.393 C 100.35 61.196 100.115 61.062 99.85 60.959 C 99.582 60.859 99.249 60.825 98.882 60.825 C 98.447 60.825 98.048 60.892 97.68 60.992 C 97.313 61.126 96.98 61.259 96.68 61.426 C 96.413 61.56 96.146 61.693 95.945 61.826 C 95.747 61.96 95.579 62.03 95.478 62.03 C 95.412 62.03 95.378 62.03 95.312 61.993 C 95.279 61.96 95.244 61.897 95.211 61.826 C 95.177 61.726 95.145 61.626 95.111 61.463 L 95.111 60.392 C 95.111 60.258 95.145 60.125 95.145 60.058 C 95.177 59.958 95.211 59.891 95.244 59.824 C 95.279 59.758 95.346 59.691 95.412 59.591 C 95.512 59.527 95.679 59.424 95.912 59.26 C 96.18 59.09 96.479 58.96 96.879 58.827 C 97.247 58.656 97.68 58.56 98.181 58.456 C 98.682 58.323 99.216 58.289 99.783 58.289 C 100.55 58.289 101.216 58.39 101.817 58.56 C 102.384 58.723 102.885 58.99 103.286 59.324 C 103.686 59.661 103.986 60.058 104.187 60.558 C 104.386 61.062 104.486 61.593 104.486 62.194 C 104.486 62.694 104.454 63.131 104.319 63.528 C 104.187 63.965 104.02 64.329 103.785 64.629 C 103.552 64.963 103.254 65.233 102.919 65.464 C 102.552 65.697 102.151 65.864 101.684 65.964 L 101.684 65.998 C 102.251 66.068 102.718 66.201 103.186 66.431 C 103.62 66.632 103.986 66.902 104.286 67.232 C 104.587 67.566 104.82 67.933 104.988 68.333 C 105.12 68.734 105.22 69.168 105.22 69.635 C 105.22 70.436 105.054 71.103 104.753 71.704 C 104.454 72.338 104.052 72.838 103.518 73.238 L 103.518 73.238 Z  M 105.288 134.873 C 105.421 134.873 105.555 134.97 105.622 135.174 C 105.72 135.337 105.788 135.671 105.788 136.141 C 105.788 136.542 105.72 136.872 105.654 137.072 C 105.555 137.306 105.453 137.406 105.288 137.406 L 103.919 137.406 L 103.919 140.242 C 103.919 140.312 103.887 140.376 103.819 140.446 C 103.785 140.509 103.686 140.543 103.584 140.609 C 103.452 140.643 103.32 140.676 103.119 140.676 C 102.919 140.713 102.651 140.713 102.352 140.713 C 102.084 140.713 101.817 140.713 101.618 140.676 C 101.417 140.676 101.283 140.643 101.15 140.609 C 101.05 140.543 100.949 140.509 100.917 140.446 C 100.884 140.376 100.85 140.312 100.85 140.242 L 100.85 137.406 L 94.845 137.406 C 94.745 137.406 94.644 137.376 94.544 137.376 C 94.478 137.339 94.377 137.273 94.343 137.172 C 94.277 137.072 94.244 136.905 94.212 136.739 C 94.178 136.542 94.145 136.275 94.145 135.971 C 94.145 135.708 94.178 135.504 94.178 135.307 C 94.178 135.104 94.212 134.937 94.244 134.803 C 94.277 134.636 94.311 134.503 94.343 134.339 C 94.41 134.203 94.478 134.069 94.544 133.906 L 99.414 125.327 C 99.45 125.26 99.516 125.193 99.615 125.163 C 99.716 125.093 99.85 125.06 100.016 125.026 C 100.216 124.993 100.416 124.96 100.684 124.926 L 102.718 124.926 C 103.019 124.96 103.218 124.993 103.419 125.026 C 103.584 125.093 103.719 125.126 103.785 125.193 C 103.853 125.26 103.919 125.327 103.919 125.43 L 103.919 134.873 L 105.288 134.873 Z  M 61.583 74.24 C 61.515 74.24 61.449 74.206 61.416 74.173 C 61.35 74.139 61.282 74.073 61.248 73.976 C 61.216 73.873 61.182 73.739 61.149 73.606 C 61.115 73.442 61.115 73.238 61.115 73.008 C 61.115 72.771 61.115 72.571 61.149 72.438 C 61.149 72.271 61.182 72.137 61.248 72.041 C 61.282 71.937 61.316 71.87 61.382 71.837 C 61.449 71.804 61.515 71.774 61.583 71.774 L 64.485 71.774 L 64.485 61.593 L 61.983 62.961 C 61.782 63.061 61.65 63.131 61.515 63.131 C 61.416 63.161 61.316 63.131 61.248 63.061 C 61.182 62.998 61.149 62.864 61.115 62.694 C 61.083 62.527 61.083 62.297 61.083 61.993 L 61.083 61.526 C 61.083 61.393 61.115 61.293 61.149 61.196 C 61.182 61.092 61.216 61.026 61.282 60.959 C 61.35 60.929 61.416 60.859 61.515 60.792 L 64.887 58.623 C 64.919 58.59 64.953 58.56 65.02 58.523 C 65.085 58.523 65.151 58.49 65.253 58.49 C 65.352 58.49 65.486 58.456 65.653 58.456 L 66.253 58.456 C 66.555 58.456 66.819 58.456 66.988 58.49 C 67.188 58.49 67.321 58.523 67.422 58.523 C 67.522 58.56 67.587 58.59 67.621 58.656 C 67.654 58.693 67.654 58.757 67.654 58.827 L 67.654 71.774 L 70.222 71.774 C 70.29 71.774 70.356 71.804 70.423 71.837 C 70.491 71.87 70.524 71.937 70.591 72.041 C 70.623 72.137 70.657 72.271 70.69 72.438 L 70.69 73.008 C 70.69 73.238 70.69 73.442 70.657 73.606 C 70.657 73.739 70.623 73.873 70.557 73.976 C 70.524 74.073 70.457 74.139 70.423 74.173 C 70.356 74.206 70.29 74.24 70.222 74.24 L 61.583 74.24 Z  M 69.924 127.195 C 70.123 127.696 70.222 128.23 70.222 128.797 C 70.222 129.334 70.156 129.831 70.089 130.302 C 69.99 130.799 69.789 131.333 69.456 131.9 C 69.156 132.467 68.722 133.102 68.188 133.802 C 67.621 134.473 66.886 135.27 65.953 136.205 L 64.119 138.077 L 70.29 138.077 C 70.39 138.077 70.457 138.077 70.524 138.14 C 70.591 138.174 70.657 138.274 70.69 138.374 C 70.758 138.474 70.792 138.607 70.824 138.778 C 70.824 138.941 70.858 139.108 70.858 139.345 C 70.858 139.575 70.824 139.775 70.824 139.942 C 70.792 140.109 70.758 140.242 70.725 140.342 C 70.69 140.446 70.623 140.543 70.557 140.579 C 70.491 140.609 70.423 140.643 70.356 140.643 L 61.35 140.643 C 61.182 140.643 61.015 140.643 60.882 140.609 C 60.749 140.579 60.649 140.509 60.582 140.409 C 60.482 140.312 60.448 140.179 60.414 140.009 C 60.382 139.809 60.347 139.612 60.347 139.308 C 60.347 139.044 60.347 138.807 60.382 138.644 C 60.414 138.44 60.448 138.274 60.516 138.107 C 60.582 137.973 60.649 137.84 60.749 137.676 C 60.882 137.539 60.981 137.376 61.149 137.206 L 63.885 134.303 C 64.419 133.735 64.851 133.235 65.185 132.768 C 65.52 132.301 65.754 131.867 65.953 131.5 C 66.12 131.136 66.253 130.766 66.32 130.435 C 66.387 130.132 66.421 129.798 66.421 129.531 C 66.421 129.264 66.387 128.997 66.32 128.767 C 66.22 128.53 66.087 128.33 65.919 128.13 C 65.754 127.963 65.553 127.829 65.319 127.729 C 65.052 127.629 64.753 127.562 64.419 127.562 C 63.951 127.562 63.517 127.629 63.151 127.763 C 62.783 127.863 62.484 127.996 62.184 128.163 C 61.917 128.296 61.683 128.43 61.483 128.563 C 61.316 128.697 61.149 128.767 61.047 128.767 C 60.981 128.767 60.915 128.73 60.882 128.697 C 60.816 128.633 60.783 128.563 60.749 128.43 C 60.716 128.33 60.681 128.2 60.681 127.996 C 60.649 127.799 60.649 127.562 60.649 127.295 L 60.649 126.832 C 60.681 126.695 60.681 126.595 60.716 126.495 C 60.749 126.398 60.783 126.328 60.816 126.264 C 60.849 126.194 60.915 126.094 61.015 126.027 C 61.115 125.927 61.316 125.794 61.583 125.627 C 61.849 125.494 62.184 125.36 62.583 125.193 C 62.984 125.06 63.417 124.96 63.885 124.863 C 64.351 124.759 64.851 124.693 65.352 124.693 C 66.186 124.693 66.886 124.793 67.488 125.026 C 68.121 125.227 68.622 125.494 69.022 125.861 C 69.423 126.228 69.723 126.661 69.924 127.195 L 69.924 127.195 Z  M 134.279 53.084 C 126.706 53.084 120.601 59.19 120.601 66.768 C 120.601 72.905 124.67 78.11 130.242 79.815 L 130.242 95.966 L 104.052 95.966 L 104.052 79.815 C 109.624 78.077 113.661 72.905 113.661 66.768 C 113.661 59.19 107.557 53.084 100.016 53.084 C 92.443 53.084 86.338 59.19 86.338 66.768 C 86.338 72.905 90.374 78.11 95.945 79.815 L 95.945 95.966 L 69.789 95.966 L 69.789 79.815 C 75.328 78.11 79.397 72.905 79.397 66.768 C 79.397 59.19 73.26 53.084 65.721 53.084 C 58.179 53.084 52.074 59.19 52.074 66.768 C 52.074 72.905 56.111 78.11 61.683 79.815 L 61.683 120.221 C 56.111 121.923 52.074 127.162 52.074 133.268 C 52.074 140.843 58.179 146.949 65.721 146.949 C 73.26 146.949 79.397 140.843 79.397 133.268 C 79.397 127.162 75.328 121.923 69.789 120.221 L 69.789 104.071 L 95.945 104.071 L 95.945 120.221 C 90.374 121.923 86.338 127.162 86.338 133.268 C 86.338 140.843 92.443 146.949 100.016 146.949 C 107.557 146.949 113.661 140.843 113.661 133.268 C 113.661 127.162 109.624 121.96 104.052 120.221 L 104.052 104.071 L 138.35 104.071 L 138.35 79.815 C 143.888 78.11 147.958 72.905 147.958 66.768 C 147.958 59.19 141.818 53.084 134.279 53.084 Z " fill="rgb(46,161,219)"/><defs><filter id="Axt5Dzr90nDbekaLi9xmfZiTlLwtJg4s" x="-200%" y="-200%" width="400%" height="400%"><feOffset xmlns="http://www.w3.org/2000/svg" in="SourceAlpha" result="offOut" dx="2" dy="2"/><feGaussianBlur xmlns="http://www.w3.org/2000/svg" in="offOut" result="blurOut" stdDeviation="2"/><feComponentTransfer xmlns="http://www.w3.org/2000/svg" in="blurOut" result="opacOut"><feFuncA xmlns="http://www.w3.org/2000/svg" type="table" tableValues="0 0.5"/></feComponentTransfer><feBlend xmlns="http://www.w3.org/2000/svg" in="SourceGraphic" in2="opacOut" mode="normal"/></filter></defs><g filter="url(#Axt5Dzr90nDbekaLi9xmfZiTlLwtJg4s)"><path d=" M 159.868 140.976 C 159.868 151.424 151.394 159.9 140.952 159.9 L 59.013 159.9 C 48.572 159.9 40.13 151.424 40.13 140.976 L 40.13 59.024 C 40.13 48.579 48.572 40.104 59.013 40.104 L 140.952 40.104 C 151.394 40.104 159.868 48.579 159.868 59.024 L 159.868 140.976 Z  M 99.984 5 C 47.537 5 5 47.511 5 100 C 5 152.455 47.537 195 99.984 195 C 152.463 195 195 152.455 195 100 C 195 47.511 152.463 5 99.984 5" fill="rgb(66,66,66)"/></g><path d=" M 100.818 127.666 L 100.85 127.666 L 100.85 134.873 L 96.714 134.873 L 100.818 127.666 Z " fill="rgb(46,161,219)"/><path d=" M 139.151 71.403 C 138.849 72.071 138.417 72.638 137.883 73.105 C 137.348 73.539 136.715 73.906 135.947 74.139 C 135.212 74.373 134.378 74.506 133.445 74.506 C 132.977 74.506 132.512 74.473 132.077 74.41 C 131.644 74.34 131.243 74.276 130.91 74.173 C 130.543 74.106 130.274 74.006 130.042 73.906 C 129.809 73.806 129.675 73.739 129.608 73.672 C 129.542 73.606 129.476 73.539 129.44 73.472 C 129.408 73.405 129.408 73.305 129.374 73.205 C 129.341 73.105 129.341 72.972 129.341 72.838 C 129.341 72.671 129.308 72.504 129.308 72.307 C 129.308 72.071 129.341 71.87 129.341 71.704 C 129.374 71.57 129.374 71.437 129.44 71.34 C 129.476 71.236 129.508 71.17 129.542 71.136 C 129.608 71.103 129.641 71.073 129.709 71.073 C 129.809 71.073 129.943 71.103 130.109 71.206 C 130.242 71.303 130.475 71.403 130.742 71.503 C 131.009 71.637 131.343 71.737 131.744 71.837 C 132.111 71.907 132.578 71.97 133.111 71.97 C 133.578 71.97 134.012 71.907 134.412 71.804 C 134.78 71.704 135.113 71.57 135.38 71.34 C 135.648 71.136 135.848 70.869 135.98 70.536 C 136.148 70.239 136.215 69.835 136.215 69.404 C 136.215 69.001 136.148 68.667 136.014 68.333 C 135.915 68.033 135.714 67.799 135.447 67.566 C 135.212 67.366 134.88 67.232 134.445 67.099 C 134.046 66.999 133.544 66.965 132.945 66.965 C 132.478 66.965 132.044 66.965 131.678 67.035 C 131.277 67.065 130.943 67.099 130.609 67.099 C 130.376 67.099 130.175 67.035 130.109 66.932 C 129.976 66.798 129.943 66.598 129.943 66.265 L 129.943 59.457 C 129.943 59.157 130.01 58.923 130.142 58.79 C 130.242 58.623 130.442 58.56 130.742 58.56 L 138.15 58.56 C 138.216 58.56 138.284 58.59 138.35 58.623 C 138.417 58.693 138.482 58.757 138.516 58.857 C 138.549 58.99 138.582 59.124 138.615 59.29 C 138.615 59.457 138.65 59.661 138.65 59.925 C 138.65 60.392 138.582 60.759 138.516 60.959 C 138.417 61.196 138.317 61.293 138.15 61.293 L 132.578 61.293 L 132.578 64.629 C 132.844 64.596 133.145 64.596 133.412 64.596 C 133.712 64.563 133.98 64.563 134.312 64.563 C 135.146 64.563 135.881 64.666 136.548 64.863 C 137.215 65.063 137.748 65.367 138.216 65.731 C 138.65 66.131 138.984 66.598 139.217 67.169 C 139.449 67.736 139.583 68.4 139.583 69.134 C 139.583 70.002 139.449 70.736 139.151 71.403 L 139.151 71.403 Z  M 103.518 73.238 C 102.985 73.639 102.352 73.976 101.618 74.173 C 100.884 74.41 100.05 74.506 99.182 74.506 C 98.648 74.506 98.147 74.473 97.68 74.373 C 97.214 74.306 96.813 74.206 96.447 74.106 C 96.078 74.006 95.78 73.873 95.546 73.739 C 95.312 73.639 95.145 73.539 95.078 73.472 C 95.012 73.405 94.946 73.339 94.913 73.272 C 94.878 73.172 94.845 73.072 94.845 72.972 C 94.811 72.875 94.779 72.741 94.779 72.571 C 94.745 72.404 94.745 72.204 94.745 71.97 C 94.745 71.57 94.779 71.303 94.845 71.17 C 94.913 71.003 95.012 70.939 95.145 70.939 C 95.211 70.939 95.346 71.003 95.546 71.103 C 95.747 71.206 96.012 71.34 96.312 71.437 C 96.614 71.57 96.98 71.704 97.38 71.804 C 97.814 71.907 98.282 71.97 98.781 71.97 C 99.249 71.97 99.615 71.907 99.95 71.804 C 100.316 71.704 100.583 71.537 100.818 71.37 C 101.05 71.17 101.25 70.939 101.351 70.669 C 101.484 70.402 101.55 70.105 101.55 69.768 C 101.55 69.404 101.451 69.067 101.317 68.8 C 101.184 68.5 100.983 68.267 100.684 68.033 C 100.416 67.833 100.083 67.666 99.649 67.566 C 99.216 67.466 98.714 67.399 98.147 67.399 L 96.779 67.399 C 96.68 67.399 96.614 67.399 96.513 67.366 C 96.447 67.332 96.38 67.266 96.346 67.199 C 96.312 67.099 96.279 66.965 96.246 66.798 C 96.212 66.665 96.212 66.468 96.212 66.201 C 96.212 65.964 96.212 65.764 96.246 65.634 C 96.279 65.464 96.312 65.367 96.346 65.297 C 96.38 65.197 96.447 65.13 96.513 65.13 C 96.581 65.1 96.647 65.063 96.746 65.063 L 98.115 65.063 C 98.58 65.063 99.015 64.996 99.381 64.896 C 99.749 64.8 100.05 64.629 100.284 64.429 C 100.517 64.229 100.716 63.995 100.85 63.698 C 100.983 63.432 101.05 63.095 101.05 62.761 C 101.05 62.494 100.983 62.227 100.917 61.993 C 100.818 61.763 100.684 61.56 100.517 61.393 C 100.35 61.196 100.115 61.062 99.85 60.959 C 99.582 60.859 99.249 60.825 98.882 60.825 C 98.447 60.825 98.048 60.892 97.68 60.992 C 97.313 61.126 96.98 61.259 96.68 61.426 C 96.413 61.56 96.146 61.693 95.945 61.826 C 95.747 61.96 95.579 62.03 95.478 62.03 C 95.412 62.03 95.378 62.03 95.312 61.993 C 95.279 61.96 95.244 61.897 95.211 61.826 C 95.177 61.726 95.145 61.626 95.111 61.463 L 95.111 60.392 C 95.111 60.258 95.145 60.125 95.145 60.058 C 95.177 59.958 95.211 59.891 95.244 59.824 C 95.279 59.758 95.346 59.691 95.412 59.591 C 95.512 59.527 95.679 59.424 95.912 59.26 C 96.18 59.09 96.479 58.96 96.879 58.827 C 97.247 58.656 97.68 58.56 98.181 58.456 C 98.682 58.323 99.216 58.289 99.783 58.289 C 100.55 58.289 101.216 58.39 101.817 58.56 C 102.384 58.723 102.885 58.99 103.286 59.324 C 103.686 59.661 103.986 60.058 104.187 60.558 C 104.386 61.062 104.486 61.593 104.486 62.194 C 104.486 62.694 104.454 63.131 104.319 63.528 C 104.187 63.965 104.02 64.329 103.785 64.629 C 103.552 64.963 103.254 65.233 102.919 65.464 C 102.552 65.697 102.151 65.864 101.684 65.964 L 101.684 65.998 C 102.251 66.068 102.718 66.201 103.186 66.431 C 103.62 66.632 103.986 66.902 104.286 67.232 C 104.587 67.566 104.82 67.933 104.988 68.333 C 105.12 68.734 105.22 69.168 105.22 69.635 C 105.22 70.436 105.054 71.103 104.753 71.704 C 104.454 72.338 104.052 72.838 103.518 73.238 L 103.518 73.238 Z  M 105.288 134.873 C 105.421 134.873 105.555 134.97 105.622 135.174 C 105.72 135.337 105.788 135.671 105.788 136.141 C 105.788 136.542 105.72 136.872 105.654 137.072 C 105.555 137.306 105.453 137.406 105.288 137.406 L 103.919 137.406 L 103.919 140.242 C 103.919 140.312 103.887 140.376 103.819 140.446 C 103.785 140.509 103.686 140.543 103.584 140.609 C 103.452 140.643 103.32 140.676 103.119 140.676 C 102.919 140.713 102.651 140.713 102.352 140.713 C 102.084 140.713 101.817 140.713 101.618 140.676 C 101.417 140.676 101.283 140.643 101.15 140.609 C 101.05 140.543 100.949 140.509 100.917 140.446 C 100.884 140.376 100.85 140.312 100.85 140.242 L 100.85 137.406 L 94.845 137.406 C 94.745 137.406 94.644 137.376 94.544 137.376 C 94.478 137.339 94.377 137.273 94.343 137.172 C 94.277 137.072 94.244 136.905 94.212 136.739 C 94.178 136.542 94.145 136.275 94.145 135.971 C 94.145 135.708 94.178 135.504 94.178 135.307 C 94.178 135.104 94.212 134.937 94.244 134.803 C 94.277 134.636 94.311 134.503 94.343 134.339 C 94.41 134.203 94.478 134.069 94.544 133.906 L 99.414 125.327 C 99.45 125.26 99.516 125.193 99.615 125.163 C 99.716 125.093 99.85 125.06 100.016 125.026 C 100.216 124.993 100.416 124.96 100.684 124.926 L 102.718 124.926 C 103.019 124.96 103.218 124.993 103.419 125.026 C 103.584 125.093 103.719 125.126 103.785 125.193 C 103.853 125.26 103.919 125.327 103.919 125.43 L 103.919 134.873 L 105.288 134.873 Z  M 61.583 74.24 C 61.515 74.24 61.449 74.206 61.416 74.173 C 61.35 74.139 61.282 74.073 61.248 73.976 C 61.216 73.873 61.182 73.739 61.149 73.606 C 61.115 73.442 61.115 73.238 61.115 73.008 C 61.115 72.771 61.115 72.571 61.149 72.438 C 61.149 72.271 61.182 72.137 61.248 72.041 C 61.282 71.937 61.316 71.87 61.382 71.837 C 61.449 71.804 61.515 71.774 61.583 71.774 L 64.485 71.774 L 64.485 61.593 L 61.983 62.961 C 61.782 63.061 61.65 63.131 61.515 63.131 C 61.416 63.161 61.316 63.131 61.248 63.061 C 61.182 62.998 61.149 62.864 61.115 62.694 C 61.083 62.527 61.083 62.297 61.083 61.993 L 61.083 61.526 C 61.083 61.393 61.115 61.293 61.149 61.196 C 61.182 61.092 61.216 61.026 61.282 60.959 C 61.35 60.929 61.416 60.859 61.515 60.792 L 64.887 58.623 C 64.919 58.59 64.953 58.56 65.02 58.523 C 65.085 58.523 65.151 58.49 65.253 58.49 C 65.352 58.49 65.486 58.456 65.653 58.456 L 66.253 58.456 C 66.555 58.456 66.819 58.456 66.988 58.49 C 67.188 58.49 67.321 58.523 67.422 58.523 C 67.522 58.56 67.587 58.59 67.621 58.656 C 67.654 58.693 67.654 58.757 67.654 58.827 L 67.654 71.774 L 70.222 71.774 C 70.29 71.774 70.356 71.804 70.423 71.837 C 70.491 71.87 70.524 71.937 70.591 72.041 C 70.623 72.137 70.657 72.271 70.69 72.438 L 70.69 73.008 C 70.69 73.238 70.69 73.442 70.657 73.606 C 70.657 73.739 70.623 73.873 70.557 73.976 C 70.524 74.073 70.457 74.139 70.423 74.173 C 70.356 74.206 70.29 74.24 70.222 74.24 L 61.583 74.24 Z  M 69.924 127.195 C 70.123 127.696 70.222 128.23 70.222 128.797 C 70.222 129.334 70.156 129.831 70.089 130.302 C 69.99 130.799 69.789 131.333 69.456 131.9 C 69.156 132.467 68.722 133.102 68.188 133.802 C 67.621 134.473 66.886 135.27 65.953 136.205 L 64.119 138.077 L 70.29 138.077 C 70.39 138.077 70.457 138.077 70.524 138.14 C 70.591 138.174 70.657 138.274 70.69 138.374 C 70.758 138.474 70.792 138.607 70.824 138.778 C 70.824 138.941 70.858 139.108 70.858 139.345 C 70.858 139.575 70.824 139.775 70.824 139.942 C 70.792 140.109 70.758 140.242 70.725 140.342 C 70.69 140.446 70.623 140.543 70.557 140.579 C 70.491 140.609 70.423 140.643 70.356 140.643 L 61.35 140.643 C 61.182 140.643 61.015 140.643 60.882 140.609 C 60.749 140.579 60.649 140.509 60.582 140.409 C 60.482 140.312 60.448 140.179 60.414 140.009 C 60.382 139.809 60.347 139.612 60.347 139.308 C 60.347 139.044 60.347 138.807 60.382 138.644 C 60.414 138.44 60.448 138.274 60.516 138.107 C 60.582 137.973 60.649 137.84 60.749 137.676 C 60.882 137.539 60.981 137.376 61.149 137.206 L 63.885 134.303 C 64.419 133.735 64.851 133.235 65.185 132.768 C 65.52 132.301 65.754 131.867 65.953 131.5 C 66.12 131.136 66.253 130.766 66.32 130.435 C 66.387 130.132 66.421 129.798 66.421 129.531 C 66.421 129.264 66.387 128.997 66.32 128.767 C 66.22 128.53 66.087 128.33 65.919 128.13 C 65.754 127.963 65.553 127.829 65.319 127.729 C 65.052 127.629 64.753 127.562 64.419 127.562 C 63.951 127.562 63.517 127.629 63.151 127.763 C 62.783 127.863 62.484 127.996 62.184 128.163 C 61.917 128.296 61.683 128.43 61.483 128.563 C 61.316 128.697 61.149 128.767 61.047 128.767 C 60.981 128.767 60.915 128.73 60.882 128.697 C 60.816 128.633 60.783 128.563 60.749 128.43 C 60.716 128.33 60.681 128.2 60.681 127.996 C 60.649 127.799 60.649 127.562 60.649 127.295 L 60.649 126.832 C 60.681 126.695 60.681 126.595 60.716 126.495 C 60.749 126.398 60.783 126.328 60.816 126.264 C 60.849 126.194 60.915 126.094 61.015 126.027 C 61.115 125.927 61.316 125.794 61.583 125.627 C 61.849 125.494 62.184 125.36 62.583 125.193 C 62.984 125.06 63.417 124.96 63.885 124.863 C 64.351 124.759 64.851 124.693 65.352 124.693 C 66.186 124.693 66.886 124.793 67.488 125.026 C 68.121 125.227 68.622 125.494 69.022 125.861 C 69.423 126.228 69.723 126.661 69.924 127.195 L 69.924 127.195 Z  M 134.279 53.084 C 126.706 53.084 120.601 59.19 120.601 66.768 C 120.601 72.905 124.67 78.11 130.242 79.815 L 130.242 95.966 L 104.052 95.966 L 104.052 79.815 C 109.624 78.077 113.661 72.905 113.661 66.768 C 113.661 59.19 107.557 53.084 100.016 53.084 C 92.443 53.084 86.338 59.19 86.338 66.768 C 86.338 72.905 90.374 78.11 95.945 79.815 L 95.945 95.966 L 69.789 95.966 L 69.789 79.815 C 75.328 78.11 79.397 72.905 79.397 66.768 C 79.397 59.19 73.26 53.084 65.721 53.084 C 58.179 53.084 52.074 59.19 52.074 66.768 C 52.074 72.905 56.111 78.11 61.683 79.815 L 61.683 120.221 C 56.111 121.923 52.074 127.162 52.074 133.268 C 52.074 140.843 58.179 146.949 65.721 146.949 C 73.26 146.949 79.397 140.843 79.397 133.268 C 79.397 127.162 75.328 121.923 69.789 120.221 L 69.789 104.071 L 95.945 104.071 L 95.945 120.221 C 90.374 121.923 86.338 127.162 86.338 133.268 C 86.338 140.843 92.443 146.949 100.016 146.949 C 107.557 146.949 113.661 140.843 113.661 133.268 C 113.661 127.162 109.624 121.96 104.052 120.221 L 104.052 104.071 L 138.35 104.071 L 138.35 79.815 C 143.888 78.11 147.958 72.905 147.958 66.768 C 147.958 59.19 141.818 53.084 134.279 53.084 Z " fill="rgb(46,161,219)"/><path d=" M 100.818 127.666 L 100.85 127.666 L 100.85 134.873 L 96.714 134.873 L 100.818 127.666 Z " fill="rgb(46,161,219)"/><path d=" M 139.151 71.403 C 138.849 72.071 138.417 72.638 137.883 73.105 C 137.348 73.539 136.715 73.906 135.947 74.139 C 135.212 74.373 134.378 74.506 133.445 74.506 C 132.977 74.506 132.512 74.473 132.077 74.41 C 131.644 74.34 131.243 74.276 130.91 74.173 C 130.543 74.106 130.274 74.006 130.042 73.906 C 129.809 73.806 129.675 73.739 129.608 73.672 C 129.542 73.606 129.476 73.539 129.44 73.472 C 129.408 73.405 129.408 73.305 129.374 73.205 C 129.341 73.105 129.341 72.972 129.341 72.838 C 129.341 72.671 129.308 72.504 129.308 72.307 C 129.308 72.071 129.341 71.87 129.341 71.704 C 129.374 71.57 129.374 71.437 129.44 71.34 C 129.476 71.236 129.508 71.17 129.542 71.136 C 129.608 71.103 129.641 71.073 129.709 71.073 C 129.809 71.073 129.943 71.103 130.109 71.206 C 130.242 71.303 130.475 71.403 130.742 71.503 C 131.009 71.637 131.343 71.737 131.744 71.837 C 132.111 71.907 132.578 71.97 133.111 71.97 C 133.578 71.97 134.012 71.907 134.412 71.804 C 134.78 71.704 135.113 71.57 135.38 71.34 C 135.648 71.136 135.848 70.869 135.98 70.536 C 136.148 70.239 136.215 69.835 136.215 69.404 C 136.215 69.001 136.148 68.667 136.014 68.333 C 135.915 68.033 135.714 67.799 135.447 67.566 C 135.212 67.366 134.88 67.232 134.445 67.099 C 134.046 66.999 133.544 66.965 132.945 66.965 C 132.478 66.965 132.044 66.965 131.678 67.035 C 131.277 67.065 130.943 67.099 130.609 67.099 C 130.376 67.099 130.175 67.035 130.109 66.932 C 129.976 66.798 129.943 66.598 129.943 66.265 L 129.943 59.457 C 129.943 59.157 130.01 58.923 130.142 58.79 C 130.242 58.623 130.442 58.56 130.742 58.56 L 138.15 58.56 C 138.216 58.56 138.284 58.59 138.35 58.623 C 138.417 58.693 138.482 58.757 138.516 58.857 C 138.549 58.99 138.582 59.124 138.615 59.29 C 138.615 59.457 138.65 59.661 138.65 59.925 C 138.65 60.392 138.582 60.759 138.516 60.959 C 138.417 61.196 138.317 61.293 138.15 61.293 L 132.578 61.293 L 132.578 64.629 C 132.844 64.596 133.145 64.596 133.412 64.596 C 133.712 64.563 133.98 64.563 134.312 64.563 C 135.146 64.563 135.881 64.666 136.548 64.863 C 137.215 65.063 137.748 65.367 138.216 65.731 C 138.65 66.131 138.984 66.598 139.217 67.169 C 139.449 67.736 139.583 68.4 139.583 69.134 C 139.583 70.002 139.449 70.736 139.151 71.403 L 139.151 71.403 Z  M 103.518 73.238 C 102.985 73.639 102.352 73.976 101.618 74.173 C 100.884 74.41 100.05 74.506 99.182 74.506 C 98.648 74.506 98.147 74.473 97.68 74.373 C 97.214 74.306 96.813 74.206 96.447 74.106 C 96.078 74.006 95.78 73.873 95.546 73.739 C 95.312 73.639 95.145 73.539 95.078 73.472 C 95.012 73.405 94.946 73.339 94.913 73.272 C 94.878 73.172 94.845 73.072 94.845 72.972 C 94.811 72.875 94.779 72.741 94.779 72.571 C 94.745 72.404 94.745 72.204 94.745 71.97 C 94.745 71.57 94.779 71.303 94.845 71.17 C 94.913 71.003 95.012 70.939 95.145 70.939 C 95.211 70.939 95.346 71.003 95.546 71.103 C 95.747 71.206 96.012 71.34 96.312 71.437 C 96.614 71.57 96.98 71.704 97.38 71.804 C 97.814 71.907 98.282 71.97 98.781 71.97 C 99.249 71.97 99.615 71.907 99.95 71.804 C 100.316 71.704 100.583 71.537 100.818 71.37 C 101.05 71.17 101.25 70.939 101.351 70.669 C 101.484 70.402 101.55 70.105 101.55 69.768 C 101.55 69.404 101.451 69.067 101.317 68.8 C 101.184 68.5 100.983 68.267 100.684 68.033 C 100.416 67.833 100.083 67.666 99.649 67.566 C 99.216 67.466 98.714 67.399 98.147 67.399 L 96.779 67.399 C 96.68 67.399 96.614 67.399 96.513 67.366 C 96.447 67.332 96.38 67.266 96.346 67.199 C 96.312 67.099 96.279 66.965 96.246 66.798 C 96.212 66.665 96.212 66.468 96.212 66.201 C 96.212 65.964 96.212 65.764 96.246 65.634 C 96.279 65.464 96.312 65.367 96.346 65.297 C 96.38 65.197 96.447 65.13 96.513 65.13 C 96.581 65.1 96.647 65.063 96.746 65.063 L 98.115 65.063 C 98.58 65.063 99.015 64.996 99.381 64.896 C 99.749 64.8 100.05 64.629 100.284 64.429 C 100.517 64.229 100.716 63.995 100.85 63.698 C 100.983 63.432 101.05 63.095 101.05 62.761 C 101.05 62.494 100.983 62.227 100.917 61.993 C 100.818 61.763 100.684 61.56 100.517 61.393 C 100.35 61.196 100.115 61.062 99.85 60.959 C 99.582 60.859 99.249 60.825 98.882 60.825 C 98.447 60.825 98.048 60.892 97.68 60.992 C 97.313 61.126 96.98 61.259 96.68 61.426 C 96.413 61.56 96.146 61.693 95.945 61.826 C 95.747 61.96 95.579 62.03 95.478 62.03 C 95.412 62.03 95.378 62.03 95.312 61.993 C 95.279 61.96 95.244 61.897 95.211 61.826 C 95.177 61.726 95.145 61.626 95.111 61.463 L 95.111 60.392 C 95.111 60.258 95.145 60.125 95.145 60.058 C 95.177 59.958 95.211 59.891 95.244 59.824 C 95.279 59.758 95.346 59.691 95.412 59.591 C 95.512 59.527 95.679 59.424 95.912 59.26 C 96.18 59.09 96.479 58.96 96.879 58.827 C 97.247 58.656 97.68 58.56 98.181 58.456 C 98.682 58.323 99.216 58.289 99.783 58.289 C 100.55 58.289 101.216 58.39 101.817 58.56 C 102.384 58.723 102.885 58.99 103.286 59.324 C 103.686 59.661 103.986 60.058 104.187 60.558 C 104.386 61.062 104.486 61.593 104.486 62.194 C 104.486 62.694 104.454 63.131 104.319 63.528 C 104.187 63.965 104.02 64.329 103.785 64.629 C 103.552 64.963 103.254 65.233 102.919 65.464 C 102.552 65.697 102.151 65.864 101.684 65.964 L 101.684 65.998 C 102.251 66.068 102.718 66.201 103.186 66.431 C 103.62 66.632 103.986 66.902 104.286 67.232 C 104.587 67.566 104.82 67.933 104.988 68.333 C 105.12 68.734 105.22 69.168 105.22 69.635 C 105.22 70.436 105.054 71.103 104.753 71.704 C 104.454 72.338 104.052 72.838 103.518 73.238 L 103.518 73.238 Z  M 105.288 134.873 C 105.421 134.873 105.555 134.97 105.622 135.174 C 105.72 135.337 105.788 135.671 105.788 136.141 C 105.788 136.542 105.72 136.872 105.654 137.072 C 105.555 137.306 105.453 137.406 105.288 137.406 L 103.919 137.406 L 103.919 140.242 C 103.919 140.312 103.887 140.376 103.819 140.446 C 103.785 140.509 103.686 140.543 103.584 140.609 C 103.452 140.643 103.32 140.676 103.119 140.676 C 102.919 140.713 102.651 140.713 102.352 140.713 C 102.084 140.713 101.817 140.713 101.618 140.676 C 101.417 140.676 101.283 140.643 101.15 140.609 C 101.05 140.543 100.949 140.509 100.917 140.446 C 100.884 140.376 100.85 140.312 100.85 140.242 L 100.85 137.406 L 94.845 137.406 C 94.745 137.406 94.644 137.376 94.544 137.376 C 94.478 137.339 94.377 137.273 94.343 137.172 C 94.277 137.072 94.244 136.905 94.212 136.739 C 94.178 136.542 94.145 136.275 94.145 135.971 C 94.145 135.708 94.178 135.504 94.178 135.307 C 94.178 135.104 94.212 134.937 94.244 134.803 C 94.277 134.636 94.311 134.503 94.343 134.339 C 94.41 134.203 94.478 134.069 94.544 133.906 L 99.414 125.327 C 99.45 125.26 99.516 125.193 99.615 125.163 C 99.716 125.093 99.85 125.06 100.016 125.026 C 100.216 124.993 100.416 124.96 100.684 124.926 L 102.718 124.926 C 103.019 124.96 103.218 124.993 103.419 125.026 C 103.584 125.093 103.719 125.126 103.785 125.193 C 103.853 125.26 103.919 125.327 103.919 125.43 L 103.919 134.873 L 105.288 134.873 Z  M 61.583 74.24 C 61.515 74.24 61.449 74.206 61.416 74.173 C 61.35 74.139 61.282 74.073 61.248 73.976 C 61.216 73.873 61.182 73.739 61.149 73.606 C 61.115 73.442 61.115 73.238 61.115 73.008 C 61.115 72.771 61.115 72.571 61.149 72.438 C 61.149 72.271 61.182 72.137 61.248 72.041 C 61.282 71.937 61.316 71.87 61.382 71.837 C 61.449 71.804 61.515 71.774 61.583 71.774 L 64.485 71.774 L 64.485 61.593 L 61.983 62.961 C 61.782 63.061 61.65 63.131 61.515 63.131 C 61.416 63.161 61.316 63.131 61.248 63.061 C 61.182 62.998 61.149 62.864 61.115 62.694 C 61.083 62.527 61.083 62.297 61.083 61.993 L 61.083 61.526 C 61.083 61.393 61.115 61.293 61.149 61.196 C 61.182 61.092 61.216 61.026 61.282 60.959 C 61.35 60.929 61.416 60.859 61.515 60.792 L 64.887 58.623 C 64.919 58.59 64.953 58.56 65.02 58.523 C 65.085 58.523 65.151 58.49 65.253 58.49 C 65.352 58.49 65.486 58.456 65.653 58.456 L 66.253 58.456 C 66.555 58.456 66.819 58.456 66.988 58.49 C 67.188 58.49 67.321 58.523 67.422 58.523 C 67.522 58.56 67.587 58.59 67.621 58.656 C 67.654 58.693 67.654 58.757 67.654 58.827 L 67.654 71.774 L 70.222 71.774 C 70.29 71.774 70.356 71.804 70.423 71.837 C 70.491 71.87 70.524 71.937 70.591 72.041 C 70.623 72.137 70.657 72.271 70.69 72.438 L 70.69 73.008 C 70.69 73.238 70.69 73.442 70.657 73.606 C 70.657 73.739 70.623 73.873 70.557 73.976 C 70.524 74.073 70.457 74.139 70.423 74.173 C 70.356 74.206 70.29 74.24 70.222 74.24 L 61.583 74.24 Z  M 69.924 127.195 C 70.123 127.696 70.222 128.23 70.222 128.797 C 70.222 129.334 70.156 129.831 70.089 130.302 C 69.99 130.799 69.789 131.333 69.456 131.9 C 69.156 132.467 68.722 133.102 68.188 133.802 C 67.621 134.473 66.886 135.27 65.953 136.205 L 64.119 138.077 L 70.29 138.077 C 70.39 138.077 70.457 138.077 70.524 138.14 C 70.591 138.174 70.657 138.274 70.69 138.374 C 70.758 138.474 70.792 138.607 70.824 138.778 C 70.824 138.941 70.858 139.108 70.858 139.345 C 70.858 139.575 70.824 139.775 70.824 139.942 C 70.792 140.109 70.758 140.242 70.725 140.342 C 70.69 140.446 70.623 140.543 70.557 140.579 C 70.491 140.609 70.423 140.643 70.356 140.643 L 61.35 140.643 C 61.182 140.643 61.015 140.643 60.882 140.609 C 60.749 140.579 60.649 140.509 60.582 140.409 C 60.482 140.312 60.448 140.179 60.414 140.009 C 60.382 139.809 60.347 139.612 60.347 139.308 C 60.347 139.044 60.347 138.807 60.382 138.644 C 60.414 138.44 60.448 138.274 60.516 138.107 C 60.582 137.973 60.649 137.84 60.749 137.676 C 60.882 137.539 60.981 137.376 61.149 137.206 L 63.885 134.303 C 64.419 133.735 64.851 133.235 65.185 132.768 C 65.52 132.301 65.754 131.867 65.953 131.5 C 66.12 131.136 66.253 130.766 66.32 130.435 C 66.387 130.132 66.421 129.798 66.421 129.531 C 66.421 129.264 66.387 128.997 66.32 128.767 C 66.22 128.53 66.087 128.33 65.919 128.13 C 65.754 127.963 65.553 127.829 65.319 127.729 C 65.052 127.629 64.753 127.562 64.419 127.562 C 63.951 127.562 63.517 127.629 63.151 127.763 C 62.783 127.863 62.484 127.996 62.184 128.163 C 61.917 128.296 61.683 128.43 61.483 128.563 C 61.316 128.697 61.149 128.767 61.047 128.767 C 60.981 128.767 60.915 128.73 60.882 128.697 C 60.816 128.633 60.783 128.563 60.749 128.43 C 60.716 128.33 60.681 128.2 60.681 127.996 C 60.649 127.799 60.649 127.562 60.649 127.295 L 60.649 126.832 C 60.681 126.695 60.681 126.595 60.716 126.495 C 60.749 126.398 60.783 126.328 60.816 126.264 C 60.849 126.194 60.915 126.094 61.015 126.027 C 61.115 125.927 61.316 125.794 61.583 125.627 C 61.849 125.494 62.184 125.36 62.583 125.193 C 62.984 125.06 63.417 124.96 63.885 124.863 C 64.351 124.759 64.851 124.693 65.352 124.693 C 66.186 124.693 66.886 124.793 67.488 125.026 C 68.121 125.227 68.622 125.494 69.022 125.861 C 69.423 126.228 69.723 126.661 69.924 127.195 L 69.924 127.195 Z  M 134.279 53.084 C 126.706 53.084 120.601 59.19 120.601 66.768 C 120.601 72.905 124.67 78.11 130.242 79.815 L 130.242 95.966 L 104.052 95.966 L 104.052 79.815 C 109.624 78.077 113.661 72.905 113.661 66.768 C 113.661 59.19 107.557 53.084 100.016 53.084 C 92.443 53.084 86.338 59.19 86.338 66.768 C 86.338 72.905 90.374 78.11 95.945 79.815 L 95.945 95.966 L 69.789 95.966 L 69.789 79.815 C 75.328 78.11 79.397 72.905 79.397 66.768 C 79.397 59.19 73.26 53.084 65.721 53.084 C 58.179 53.084 52.074 59.19 52.074 66.768 C 52.074 72.905 56.111 78.11 61.683 79.815 L 61.683 120.221 C 56.111 121.923 52.074 127.162 52.074 133.268 C 52.074 140.843 58.179 146.949 65.721 146.949 C 73.26 146.949 79.397 140.843 79.397 133.268 C 79.397 127.162 75.328 121.923 69.789 120.221 L 69.789 104.071 L 95.945 104.071 L 95.945 120.221 C 90.374 121.923 86.338 127.162 86.338 133.268 C 86.338 140.843 92.443 146.949 100.016 146.949 C 107.557 146.949 113.661 140.843 113.661 133.268 C 113.661 127.162 109.624 121.96 104.052 120.221 L 104.052 104.071 L 138.35 104.071 L 138.35 79.815 C 143.888 78.11 147.958 72.905 147.958 66.768 C 147.958 59.19 141.818 53.084 134.279 53.084 Z " fill="rgb(46,161,219)"/><path d=" M 137.382 129.531 C 137.249 129.868 137.049 130.132 136.814 130.365 C 136.548 130.599 136.215 130.766 135.814 130.899 C 135.413 131.033 134.948 131.099 134.412 131.099 L 132.512 131.099 L 132.512 125.894 L 134.213 125.894 C 134.613 125.894 134.948 125.927 135.18 125.927 C 135.447 125.961 135.648 125.997 135.848 126.061 C 136.448 126.228 136.914 126.531 137.181 126.928 C 137.45 127.365 137.583 127.863 137.583 128.463 C 137.583 128.864 137.516 129.231 137.382 129.531 L 137.382 129.531 Z  M 142.32 140.509 C 142.286 140.342 142.186 140.075 142.053 139.708 L 140.484 136.105 C 140.318 135.671 140.118 135.27 139.952 134.937 C 139.751 134.606 139.551 134.303 139.35 134.039 C 139.118 133.735 138.917 133.535 138.65 133.335 C 138.417 133.135 138.15 133.001 137.883 132.868 C 138.449 132.671 138.95 132.434 139.416 132.134 C 139.85 131.867 140.217 131.5 140.518 131.099 C 140.819 130.702 141.051 130.265 141.219 129.765 C 141.352 129.264 141.452 128.697 141.452 128.096 C 141.452 127.365 141.352 126.695 141.117 126.161 C 140.885 125.594 140.585 125.093 140.184 124.693 C 139.751 124.292 139.251 123.959 138.683 123.692 C 138.083 123.425 137.415 123.258 136.682 123.158 C 136.448 123.124 136.148 123.091 135.848 123.091 C 135.513 123.061 135.146 123.061 134.645 123.061 L 129.908 123.061 C 129.608 123.061 129.341 123.158 129.109 123.325 C 128.908 123.525 128.807 123.825 128.807 124.225 L 128.807 140.876 C 128.807 140.976 128.841 141.043 128.875 141.11 C 128.941 141.21 129.042 141.243 129.176 141.31 C 129.341 141.344 129.508 141.377 129.775 141.414 C 130.01 141.444 130.31 141.477 130.643 141.477 C 131.009 141.477 131.343 141.444 131.576 141.414 C 131.81 141.377 131.978 141.344 132.143 141.31 C 132.277 141.243 132.378 141.21 132.446 141.11 C 132.512 141.043 132.512 140.976 132.512 140.876 L 132.512 133.906 L 133.678 133.906 C 134.078 133.906 134.445 133.936 134.747 134.069 C 135.047 134.203 135.314 134.369 135.547 134.606 C 135.782 134.873 135.98 135.174 136.148 135.504 C 136.347 135.871 136.548 136.275 136.749 136.739 L 138.383 140.843 C 138.417 140.943 138.482 141.043 138.516 141.147 C 138.582 141.21 138.683 141.28 138.816 141.344 C 138.95 141.377 139.151 141.414 139.383 141.444 C 139.617 141.444 139.917 141.477 140.318 141.477 C 140.786 141.477 141.185 141.444 141.452 141.444 C 141.719 141.414 141.918 141.377 142.053 141.344 C 142.22 141.28 142.286 141.21 142.353 141.147 C 142.387 141.077 142.387 141.013 142.387 140.91 C 142.387 140.81 142.353 140.676 142.32 140.509" fill="rgb(66,66,66)"/></g></svg>