<?xml version="1.0" encoding="UTF-8" standalone="no"?>
<!-- Generator: Gravit.io -->
<svg xmlns="http://www.w3.org/2000/svg" xmlns:xlink="http://www.w3.org/1999/xlink" style="isolation:isolate" viewBox="0 0 200 201" width="200" height="201"><g style="isolation:isolate" id="aceite"><defs><filter id="yNaxAllvgN9hpJeVX2b737iMPU1cfX9g" x="-200%" y="-200%" width="400%" height="400%"><feOffset xmlns="http://www.w3.org/2000/svg" in="SourceAlpha" result="offOut" dx="2" dy="2"/><feGaussianBlur xmlns="http://www.w3.org/2000/svg" in="offOut" result="blurOut" stdDeviation="2"/><feComponentTransfer xmlns="http://www.w3.org/2000/svg" in="blurOut" result="opacOut"><feFuncA xmlns="http://www.w3.org/2000/svg" type="table" tableValues="0 0.5"/></feComponentTransfer><feBlend xmlns="http://www.w3.org/2000/svg" in="SourceGraphic" in2="opacOut" mode="normal"/></filter></defs><g filter="url(#yNaxAllvgN9hpJeVX2b737iMPU1cfX9g)"><path d=" M 116.071 92.752 L 111.89 48.592 L 151.786 91.555 L 153.998 93.945 L 116.071 92.752 Z  M 150.463 175.179 L 47.177 175.179 L 47.177 110.367 L 150.463 110.367 L 150.463 175.179 Z  M 173.464 93.945 L 172.999 93.455 L 172.89 93.366 L 111.035 28.952 L 109.32 27.172 C 108.107 26.251 106.5 25.73 104.748 25.73 L 83.319 25.73 L 83.319 21.25 L 50 21.25 L 50 25.73 L 32.143 25.73 C 28.214 25.73 25 28.462 25 31.867 L 25 188.862 C 25 192.272 28.214 195 32.143 195 L 167.857 195 C 171.784 195 175 192.272 175 188.862 L 175 97.692 C 175 96.247 174.428 94.958 173.464 93.945" fill="rgb(66,66,66)"/></g><line x1="111.041" y1="28.95" x2="109.326" y2="27.169"/><path d=" M 86.165 18.172 L 47.177 18.172 L 47.177 5 L 86.165 5 L 86.165 18.172 Z " fill="rgb(46,161,219)"/><path d=" M 96.5 161.124 C 95.284 162.536 92.892 161.277 91.463 160.602 C 89.749 159.805 86.427 157.472 86.713 155.446 C 87.214 152.593 90.534 154.526 92.427 155.873 C 94.926 157.84 97.035 160.541 96.5 161.124 Z  M 114.821 142.524 L 114.535 142.16 L 100.035 119.911 L 84.677 143.356 C 83.248 145.504 82.499 147.99 82.499 150.629 C 82.499 158.942 90.356 165.636 100.035 165.636 C 109.713 165.636 117.533 158.942 117.533 150.629 C 117.533 147.649 116.534 144.857 114.821 142.524 Z " fill="rgb(46,161,219)"/></g></svg>