<?xml version="1.0" encoding="UTF-8" standalone="no"?>
<!-- Generator: Gravit.io -->
<svg xmlns="http://www.w3.org/2000/svg" xmlns:xlink="http://www.w3.org/1999/xlink" style="isolation:isolate" width="800" height="230"><radialGradient id="_rgradient_3" fx="50%" fy="50%" cx="50%" cy="50%" r="50%"><stop offset="0%" style="stop-color:rgb(46,161,219)"/><stop offset="100%" style="stop-color:rgb(0,188,212)"/></radialGradient><path d=" M 502 167.20000000000002 L 504.4 132.8 L 504.4 90.8 L 502 56.599999999999994 L 496 55.2 L 496.2 51.400000000000006 L 530.4 51.400000000000006 L 530.6 55.599999999999994 L 522.6 56.599999999999994 L 520.2 91 L 520.2 133 L 522 158.8 L 539.6 158.8 L 562.6 156.6 L 566 148.6 L 569.4 149.4 L 563.2 177.8 L 559.6 177.6 L 559.8 172.4 L 496.2 172.4 L 496 168.6 L 502 167.20000000000002 Z  M 586.4 167.20000000000002 L 588.8 132.8 L 588.8 90.8 L 586.4 56.8 L 580.4 55.400000000000006 L 580.6 51.599999999999994 Q 613 50.8 623.6 50.8 Q 669 50.8 669 85.6 Q 669 101.2 659.7 110.2 Q 650.4 119.2 633 120 L 673.8 167.20000000000002 L 680 168.6 L 679.8 172.4 L 640.8 172.4 L 640.6 168.20000000000002 L 649 167.20000000000002 L 627.4 135.8 L 607 112.4 L 607.4 110.4 Q 633 109.6 641.7 104.8 Q 650.4 100 650.4 86.4 Q 650.4 62.8 622.8 62.8 Q 615 62.8 606.4 65 L 604.6 91 L 604.6 133 L 607 167.20000000000002 L 615.4 168.20000000000002 L 615.2 172.4 L 580.6 172.4 L 580.4 168.6 L 586.4 167.20000000000002 Z  M 768 67 L 746.6 65 L 717 65 L 715.2 91 L 715.2 100.2 L 753.6 100.2 L 755.2 94.4 L 759 94.4 L 757.8 121.80000000000001 L 754 121.80000000000001 L 753 113.80000000000001 L 715.2 113.80000000000001 L 715.2 133 L 717 158.8 L 746.6 158.8 L 769.6 156.6 L 773 148.6 L 776.4 149.4 L 770.2 177.8 L 766.6 177.6 L 766.8 172.4 L 691.2 172.4 L 691 168.6 L 697 167.20000000000002 L 699.4 132.8 L 699.4 90.8 L 697 56.599999999999994 L 691 55.2 L 691.2 51.400000000000006 L 768.6 51.400000000000006 L 770.2 45.599999999999994 L 774 45.599999999999994 L 772.8 75 L 769 75 L 768 67 Z " fill-rule="evenodd" fill="url(#_rgradient_3)" stroke="none"/><mask id="_mask_DHrZkbtF2w3PQuj5kYqsswYDUNqMnYxJ"><path d=" M 502 167.20000000000002 L 504.4 132.8 L 504.4 90.8 L 502 56.599999999999994 L 496 55.2 L 496.2 51.400000000000006 L 530.4 51.400000000000006 L 530.6 55.599999999999994 L 522.6 56.599999999999994 L 520.2 91 L 520.2 133 L 522 158.8 L 539.6 158.8 L 562.6 156.6 L 566 148.6 L 569.4 149.4 L 563.2 177.8 L 559.6 177.6 L 559.8 172.4 L 496.2 172.4 L 496 168.6 L 502 167.20000000000002 Z  M 586.4 167.20000000000002 L 588.8 132.8 L 588.8 90.8 L 586.4 56.8 L 580.4 55.400000000000006 L 580.6 51.599999999999994 Q 613 50.8 623.6 50.8 Q 669 50.8 669 85.6 Q 669 101.2 659.7 110.2 Q 650.4 119.2 633 120 L 673.8 167.20000000000002 L 680 168.6 L 679.8 172.4 L 640.8 172.4 L 640.6 168.20000000000002 L 649 167.20000000000002 L 627.4 135.8 L 607 112.4 L 607.4 110.4 Q 633 109.6 641.7 104.8 Q 650.4 100 650.4 86.4 Q 650.4 62.8 622.8 62.8 Q 615 62.8 606.4 65 L 604.6 91 L 604.6 133 L 607 167.20000000000002 L 615.4 168.20000000000002 L 615.2 172.4 L 580.6 172.4 L 580.4 168.6 L 586.4 167.20000000000002 Z  M 768 67 L 746.6 65 L 717 65 L 715.2 91 L 715.2 100.2 L 753.6 100.2 L 755.2 94.4 L 759 94.4 L 757.8 121.80000000000001 L 754 121.80000000000001 L 753 113.80000000000001 L 715.2 113.80000000000001 L 715.2 133 L 717 158.8 L 746.6 158.8 L 769.6 156.6 L 773 148.6 L 776.4 149.4 L 770.2 177.8 L 766.6 177.6 L 766.8 172.4 L 691.2 172.4 L 691 168.6 L 697 167.20000000000002 L 699.4 132.8 L 699.4 90.8 L 697 56.599999999999994 L 691 55.2 L 691.2 51.400000000000006 L 768.6 51.400000000000006 L 770.2 45.599999999999994 L 774 45.599999999999994 L 772.8 75 L 769 75 L 768 67 Z " fill-rule="evenodd" fill="white" stroke="none"/></mask><path d=" M 502 167.20000000000002 L 504.4 132.8 L 504.4 90.8 L 502 56.599999999999994 L 496 55.2 L 496.2 51.400000000000006 L 530.4 51.400000000000006 L 530.6 55.599999999999994 L 522.6 56.599999999999994 L 520.2 91 L 520.2 133 L 522 158.8 L 539.6 158.8 L 562.6 156.6 L 566 148.6 L 569.4 149.4 L 563.2 177.8 L 559.6 177.6 L 559.8 172.4 L 496.2 172.4 L 496 168.6 L 502 167.20000000000002 Z  M 586.4 167.20000000000002 L 588.8 132.8 L 588.8 90.8 L 586.4 56.8 L 580.4 55.400000000000006 L 580.6 51.599999999999994 Q 613 50.8 623.6 50.8 Q 669 50.8 669 85.6 Q 669 101.2 659.7 110.2 Q 650.4 119.2 633 120 L 673.8 167.20000000000002 L 680 168.6 L 679.8 172.4 L 640.8 172.4 L 640.6 168.20000000000002 L 649 167.20000000000002 L 627.4 135.8 L 607 112.4 L 607.4 110.4 Q 633 109.6 641.7 104.8 Q 650.4 100 650.4 86.4 Q 650.4 62.8 622.8 62.8 Q 615 62.8 606.4 65 L 604.6 91 L 604.6 133 L 607 167.20000000000002 L 615.4 168.20000000000002 L 615.2 172.4 L 580.6 172.4 L 580.4 168.6 L 586.4 167.20000000000002 Z  M 768 67 L 746.6 65 L 717 65 L 715.2 91 L 715.2 100.2 L 753.6 100.2 L 755.2 94.4 L 759 94.4 L 757.8 121.80000000000001 L 754 121.80000000000001 L 753 113.80000000000001 L 715.2 113.80000000000001 L 715.2 133 L 717 158.8 L 746.6 158.8 L 769.6 156.6 L 773 148.6 L 776.4 149.4 L 770.2 177.8 L 766.6 177.6 L 766.8 172.4 L 691.2 172.4 L 691 168.6 L 697 167.20000000000002 L 699.4 132.8 L 699.4 90.8 L 697 56.599999999999994 L 691 55.2 L 691.2 51.400000000000006 L 768.6 51.400000000000006 L 770.2 45.599999999999994 L 774 45.599999999999994 L 772.8 75 L 769 75 L 768 67 Z " fill-rule="evenodd" fill="none" stroke="none" stroke-width="0" mask="url(#_mask_DHrZkbtF2w3PQuj5kYqsswYDUNqMnYxJ)"/><path d=" M 123.349609375 143.21826171875 L 101.14501953125 99.59765625 L 101.14501953125 143.21826171875 L 92.63671875 143.21826171875 L 92.63671875 83.70166015625 L 101.93359375 83.70166015625 L 124.5947265625 128.52587890625 L 147.29736328125 83.70166015625 L 156.552734375 83.70166015625 L 156.552734375 143.21826171875 L 148.0859375 143.21826171875 L 148.0859375 99.59765625 L 125.88134765625 143.21826171875 L 123.349609375 143.21826171875 Z  M 208.4326171875 125.28857421875 L 179.17236328125 125.28857421875 L 179.17236328125 135.0419921875 L 208.4326171875 135.0419921875 L 208.4326171875 143.21826171875 L 179.17236328125 143.21826171875 Q 177.51220703125 143.21826171875 176.01806640625 142.574951171875 Q 174.52392578125 141.931640625 173.424072265625 140.831787109375 Q 172.32421875 139.73193359375 171.680908203125 138.23779296875 Q 171.03759765625 136.74365234375 171.03759765625 135.0419921875 L 171.03759765625 107.19287109375 Q 171.03759765625 105.4912109375 171.680908203125 103.9970703125 Q 172.32421875 102.5029296875 173.424072265625 101.403076171875 Q 174.52392578125 100.30322265625 176.01806640625 99.659912109375 Q 177.51220703125 99.0166015625 179.17236328125 99.0166015625 L 200.25634765625 99.0166015625 Q 201.9580078125 99.0166015625 203.4521484375 99.659912109375 Q 204.9462890625 100.30322265625 206.046142578125 101.403076171875 Q 207.14599609375 102.5029296875 207.789306640625 103.9970703125 Q 208.4326171875 105.4912109375 208.4326171875 107.19287109375 L 208.4326171875 125.28857421875 Z  M 179.17236328125 107.19287109375 L 179.17236328125 117.1123046875 L 200.25634765625 117.1123046875 L 200.25634765625 107.19287109375 L 179.17236328125 107.19287109375 Z  M 230.1806640625 107.19287109375 L 230.1806640625 135.0419921875 L 251.2646484375 135.0419921875 L 251.2646484375 127.5712890625 L 259.44091796875 127.5712890625 L 259.44091796875 135.0419921875 Q 259.44091796875 136.74365234375 258.797607421875 138.23779296875 Q 258.154296875 139.73193359375 257.054443359375 140.831787109375 Q 255.95458984375 141.931640625 254.46044921875 142.574951171875 Q 252.96630859375 143.21826171875 251.2646484375 143.21826171875 L 230.1806640625 143.21826171875 Q 228.5205078125 143.21826171875 227.0263671875 142.574951171875 Q 225.5322265625 141.931640625 224.432373046875 140.831787109375 Q 223.33251953125 139.73193359375 222.689208984375 138.23779296875 Q 222.0458984375 136.74365234375 222.0458984375 135.0419921875 L 222.0458984375 107.19287109375 Q 222.0458984375 105.4912109375 222.689208984375 103.9970703125 Q 223.33251953125 102.5029296875 224.432373046875 101.403076171875 Q 225.5322265625 100.30322265625 227.0263671875 99.659912109375 Q 228.5205078125 99.0166015625 230.1806640625 99.0166015625 L 251.2646484375 99.0166015625 Q 252.96630859375 99.0166015625 254.46044921875 99.659912109375 Q 255.95458984375 100.30322265625 257.054443359375 101.403076171875 Q 258.154296875 102.5029296875 258.797607421875 103.9970703125 Q 259.44091796875 105.4912109375 259.44091796875 107.19287109375 L 259.44091796875 114.66357421875 L 251.2646484375 114.66357421875 L 251.2646484375 107.19287109375 L 230.1806640625 107.19287109375 Z  M 273.05419921875 123.9189453125 Q 273.05419921875 122.21728515625 273.697509765625 120.743896484375 Q 274.3408203125 119.2705078125 275.440673828125 118.14990234375 Q 276.54052734375 117.029296875 278.03466796875 116.385986328125 Q 279.52880859375 115.74267578125 281.18896484375 115.74267578125 L 302.27294921875 115.74267578125 L 302.27294921875 107.19287109375 L 275.5859375 107.19287109375 L 275.5859375 99.0166015625 L 302.27294921875 99.0166015625 Q 303.974609375 99.0166015625 305.46875 99.659912109375 Q 306.962890625 100.30322265625 308.062744140625 101.403076171875 Q 309.16259765625 102.5029296875 309.805908203125 103.9970703125 Q 310.44921875 105.4912109375 310.44921875 107.19287109375 L 310.44921875 143.21826171875 L 302.27294921875 143.21826171875 L 302.27294921875 135.74755859375 Q 302.1484375 137.283203125 301.44287109375 138.65283203125 Q 300.7373046875 140.0224609375 299.637451171875 141.039306640625 Q 298.53759765625 142.05615234375 297.12646484375 142.63720703125 Q 295.71533203125 143.21826171875 294.13818359375 143.21826171875 L 281.18896484375 143.21826171875 Q 279.52880859375 143.21826171875 278.03466796875 142.574951171875 Q 276.54052734375 141.931640625 275.440673828125 140.831787109375 Q 274.3408203125 139.73193359375 273.697509765625 138.23779296875 Q 273.05419921875 136.74365234375 273.05419921875 135.0419921875 L 273.05419921875 123.9189453125 Z  M 281.18896484375 135.0419921875 L 302.27294921875 135.0419921875 L 302.27294921875 123.9189453125 L 281.18896484375 123.9189453125 L 281.18896484375 135.0419921875 Z  M 294.47021484375 82 L 306.8798828125 82 L 292.8515625 91.3798828125 L 285.048828125 91.3798828125 L 294.47021484375 82 Z  M 363.1591796875 143.21826171875 L 354.98291015625 143.21826171875 L 354.98291015625 107.19287109375 L 332.197265625 107.19287109375 L 332.197265625 143.21826171875 L 324.0625 143.21826171875 L 324.0625 99.0166015625 L 332.197265625 99.0166015625 L 332.197265625 106.8193359375 Q 332.2802734375 105.20068359375 332.9443359375 103.768798828125 Q 333.6083984375 102.3369140625 334.708251953125 101.278564453125 Q 335.80810546875 100.22021484375 337.2607421875 99.618408203125 Q 338.71337890625 99.0166015625 340.37353515625 99.0166015625 L 354.98291015625 99.0166015625 Q 356.6845703125 99.0166015625 358.1787109375 99.659912109375 Q 359.6728515625 100.30322265625 360.772705078125 101.403076171875 Q 361.87255859375 102.5029296875 362.515869140625 103.9970703125 Q 363.1591796875 105.4912109375 363.1591796875 107.19287109375 L 363.1591796875 143.21826171875 Z  M 385.36376953125 99.0166015625 L 385.36376953125 143.21826171875 L 377.1875 143.21826171875 L 377.1875 99.0166015625 L 385.36376953125 99.0166015625 Z  M 376.7724609375 82 L 385.77880859375 82 L 385.77880859375 90.50830078125 L 376.7724609375 90.50830078125 L 376.7724609375 82 Z  M 407.52685546875 107.19287109375 L 407.52685546875 135.0419921875 L 428.61083984375 135.0419921875 L 428.61083984375 127.5712890625 L 436.787109375 127.5712890625 L 436.787109375 135.0419921875 Q 436.787109375 136.74365234375 436.143798828125 138.23779296875 Q 435.50048828125 139.73193359375 434.400634765625 140.831787109375 Q 433.30078125 141.931640625 431.806640625 142.574951171875 Q 430.3125 143.21826171875 428.61083984375 143.21826171875 L 407.52685546875 143.21826171875 Q 405.86669921875 143.21826171875 404.37255859375 142.574951171875 Q 402.87841796875 141.931640625 401.778564453125 140.831787109375 Q 400.6787109375 139.73193359375 400.035400390625 138.23779296875 Q 399.39208984375 136.74365234375 399.39208984375 135.0419921875 L 399.39208984375 107.19287109375 Q 399.39208984375 105.4912109375 400.035400390625 103.9970703125 Q 400.6787109375 102.5029296875 401.778564453125 101.403076171875 Q 402.87841796875 100.30322265625 404.37255859375 99.659912109375 Q 405.86669921875 99.0166015625 407.52685546875 99.0166015625 L 428.61083984375 99.0166015625 Q 430.3125 99.0166015625 431.806640625 99.659912109375 Q 433.30078125 100.30322265625 434.400634765625 101.403076171875 Q 435.50048828125 102.5029296875 436.143798828125 103.9970703125 Q 436.787109375 105.4912109375 436.787109375 107.19287109375 L 436.787109375 114.66357421875 L 428.61083984375 114.66357421875 L 428.61083984375 107.19287109375 L 407.52685546875 107.19287109375 Z  M 450.400390625 123.9189453125 Q 450.400390625 122.21728515625 451.043701171875 120.743896484375 Q 451.68701171875 119.2705078125 452.786865234375 118.14990234375 Q 453.88671875 117.029296875 455.380859375 116.385986328125 Q 456.875 115.74267578125 458.53515625 115.74267578125 L 479.619140625 115.74267578125 L 479.619140625 107.19287109375 L 452.93212890625 107.19287109375 L 452.93212890625 99.0166015625 L 479.619140625 99.0166015625 Q 481.32080078125 99.0166015625 482.81494140625 99.659912109375 Q 484.30908203125 100.30322265625 485.408935546875 101.403076171875 Q 486.5087890625 102.5029296875 487.152099609375 103.9970703125 Q 487.79541015625 105.4912109375 487.79541015625 107.19287109375 L 487.79541015625 143.21826171875 L 479.619140625 143.21826171875 L 479.619140625 135.74755859375 Q 479.49462890625 137.283203125 478.7890625 138.65283203125 Q 478.08349609375 140.0224609375 476.983642578125 141.039306640625 Q 475.8837890625 142.05615234375 474.47265625 142.63720703125 Q 473.0615234375 143.21826171875 471.484375 143.21826171875 L 458.53515625 143.21826171875 Q 456.875 143.21826171875 455.380859375 142.574951171875 Q 453.88671875 141.931640625 452.786865234375 140.831787109375 Q 451.68701171875 139.73193359375 451.043701171875 138.23779296875 Q 450.400390625 136.74365234375 450.400390625 135.0419921875 L 450.400390625 123.9189453125 Z  M 458.53515625 135.0419921875 L 479.619140625 135.0419921875 L 479.619140625 123.9189453125 L 458.53515625 123.9189453125 L 458.53515625 135.0419921875 Z " fill-rule="evenodd" fill="rgb(66,66,66)" stroke="none"/><mask id="_mask_UF8resUWLTjIns2ubrOjOw7KqRKOvGDr"><path d=" M 123.349609375 143.21826171875 L 101.14501953125 99.59765625 L 101.14501953125 143.21826171875 L 92.63671875 143.21826171875 L 92.63671875 83.70166015625 L 101.93359375 83.70166015625 L 124.5947265625 128.52587890625 L 147.29736328125 83.70166015625 L 156.552734375 83.70166015625 L 156.552734375 143.21826171875 L 148.0859375 143.21826171875 L 148.0859375 99.59765625 L 125.88134765625 143.21826171875 L 123.349609375 143.21826171875 Z  M 208.4326171875 125.28857421875 L 179.17236328125 125.28857421875 L 179.17236328125 135.0419921875 L 208.4326171875 135.0419921875 L 208.4326171875 143.21826171875 L 179.17236328125 143.21826171875 Q 177.51220703125 143.21826171875 176.01806640625 142.574951171875 Q 174.52392578125 141.931640625 173.424072265625 140.831787109375 Q 172.32421875 139.73193359375 171.680908203125 138.23779296875 Q 171.03759765625 136.74365234375 171.03759765625 135.0419921875 L 171.03759765625 107.19287109375 Q 171.03759765625 105.4912109375 171.680908203125 103.9970703125 Q 172.32421875 102.5029296875 173.424072265625 101.403076171875 Q 174.52392578125 100.30322265625 176.01806640625 99.659912109375 Q 177.51220703125 99.0166015625 179.17236328125 99.0166015625 L 200.25634765625 99.0166015625 Q 201.9580078125 99.0166015625 203.4521484375 99.659912109375 Q 204.9462890625 100.30322265625 206.046142578125 101.403076171875 Q 207.14599609375 102.5029296875 207.789306640625 103.9970703125 Q 208.4326171875 105.4912109375 208.4326171875 107.19287109375 L 208.4326171875 125.28857421875 Z  M 179.17236328125 107.19287109375 L 179.17236328125 117.1123046875 L 200.25634765625 117.1123046875 L 200.25634765625 107.19287109375 L 179.17236328125 107.19287109375 Z  M 230.1806640625 107.19287109375 L 230.1806640625 135.0419921875 L 251.2646484375 135.0419921875 L 251.2646484375 127.5712890625 L 259.44091796875 127.5712890625 L 259.44091796875 135.0419921875 Q 259.44091796875 136.74365234375 258.797607421875 138.23779296875 Q 258.154296875 139.73193359375 257.054443359375 140.831787109375 Q 255.95458984375 141.931640625 254.46044921875 142.574951171875 Q 252.96630859375 143.21826171875 251.2646484375 143.21826171875 L 230.1806640625 143.21826171875 Q 228.5205078125 143.21826171875 227.0263671875 142.574951171875 Q 225.5322265625 141.931640625 224.432373046875 140.831787109375 Q 223.33251953125 139.73193359375 222.689208984375 138.23779296875 Q 222.0458984375 136.74365234375 222.0458984375 135.0419921875 L 222.0458984375 107.19287109375 Q 222.0458984375 105.4912109375 222.689208984375 103.9970703125 Q 223.33251953125 102.5029296875 224.432373046875 101.403076171875 Q 225.5322265625 100.30322265625 227.0263671875 99.659912109375 Q 228.5205078125 99.0166015625 230.1806640625 99.0166015625 L 251.2646484375 99.0166015625 Q 252.96630859375 99.0166015625 254.46044921875 99.659912109375 Q 255.95458984375 100.30322265625 257.054443359375 101.403076171875 Q 258.154296875 102.5029296875 258.797607421875 103.9970703125 Q 259.44091796875 105.4912109375 259.44091796875 107.19287109375 L 259.44091796875 114.66357421875 L 251.2646484375 114.66357421875 L 251.2646484375 107.19287109375 L 230.1806640625 107.19287109375 Z  M 273.05419921875 123.9189453125 Q 273.05419921875 122.21728515625 273.697509765625 120.743896484375 Q 274.3408203125 119.2705078125 275.440673828125 118.14990234375 Q 276.54052734375 117.029296875 278.03466796875 116.385986328125 Q 279.52880859375 115.74267578125 281.18896484375 115.74267578125 L 302.27294921875 115.74267578125 L 302.27294921875 107.19287109375 L 275.5859375 107.19287109375 L 275.5859375 99.0166015625 L 302.27294921875 99.0166015625 Q 303.974609375 99.0166015625 305.46875 99.659912109375 Q 306.962890625 100.30322265625 308.062744140625 101.403076171875 Q 309.16259765625 102.5029296875 309.805908203125 103.9970703125 Q 310.44921875 105.4912109375 310.44921875 107.19287109375 L 310.44921875 143.21826171875 L 302.27294921875 143.21826171875 L 302.27294921875 135.74755859375 Q 302.1484375 137.283203125 301.44287109375 138.65283203125 Q 300.7373046875 140.0224609375 299.637451171875 141.039306640625 Q 298.53759765625 142.05615234375 297.12646484375 142.63720703125 Q 295.71533203125 143.21826171875 294.13818359375 143.21826171875 L 281.18896484375 143.21826171875 Q 279.52880859375 143.21826171875 278.03466796875 142.574951171875 Q 276.54052734375 141.931640625 275.440673828125 140.831787109375 Q 274.3408203125 139.73193359375 273.697509765625 138.23779296875 Q 273.05419921875 136.74365234375 273.05419921875 135.0419921875 L 273.05419921875 123.9189453125 Z  M 281.18896484375 135.0419921875 L 302.27294921875 135.0419921875 L 302.27294921875 123.9189453125 L 281.18896484375 123.9189453125 L 281.18896484375 135.0419921875 Z  M 294.47021484375 82 L 306.8798828125 82 L 292.8515625 91.3798828125 L 285.048828125 91.3798828125 L 294.47021484375 82 Z  M 363.1591796875 143.21826171875 L 354.98291015625 143.21826171875 L 354.98291015625 107.19287109375 L 332.197265625 107.19287109375 L 332.197265625 143.21826171875 L 324.0625 143.21826171875 L 324.0625 99.0166015625 L 332.197265625 99.0166015625 L 332.197265625 106.8193359375 Q 332.2802734375 105.20068359375 332.9443359375 103.768798828125 Q 333.6083984375 102.3369140625 334.708251953125 101.278564453125 Q 335.80810546875 100.22021484375 337.2607421875 99.618408203125 Q 338.71337890625 99.0166015625 340.37353515625 99.0166015625 L 354.98291015625 99.0166015625 Q 356.6845703125 99.0166015625 358.1787109375 99.659912109375 Q 359.6728515625 100.30322265625 360.772705078125 101.403076171875 Q 361.87255859375 102.5029296875 362.515869140625 103.9970703125 Q 363.1591796875 105.4912109375 363.1591796875 107.19287109375 L 363.1591796875 143.21826171875 Z  M 385.36376953125 99.0166015625 L 385.36376953125 143.21826171875 L 377.1875 143.21826171875 L 377.1875 99.0166015625 L 385.36376953125 99.0166015625 Z  M 376.7724609375 82 L 385.77880859375 82 L 385.77880859375 90.50830078125 L 376.7724609375 90.50830078125 L 376.7724609375 82 Z  M 407.52685546875 107.19287109375 L 407.52685546875 135.0419921875 L 428.61083984375 135.0419921875 L 428.61083984375 127.5712890625 L 436.787109375 127.5712890625 L 436.787109375 135.0419921875 Q 436.787109375 136.74365234375 436.143798828125 138.23779296875 Q 435.50048828125 139.73193359375 434.400634765625 140.831787109375 Q 433.30078125 141.931640625 431.806640625 142.574951171875 Q 430.3125 143.21826171875 428.61083984375 143.21826171875 L 407.52685546875 143.21826171875 Q 405.86669921875 143.21826171875 404.37255859375 142.574951171875 Q 402.87841796875 141.931640625 401.778564453125 140.831787109375 Q 400.6787109375 139.73193359375 400.035400390625 138.23779296875 Q 399.39208984375 136.74365234375 399.39208984375 135.0419921875 L 399.39208984375 107.19287109375 Q 399.39208984375 105.4912109375 400.035400390625 103.9970703125 Q 400.6787109375 102.5029296875 401.778564453125 101.403076171875 Q 402.87841796875 100.30322265625 404.37255859375 99.659912109375 Q 405.86669921875 99.0166015625 407.52685546875 99.0166015625 L 428.61083984375 99.0166015625 Q 430.3125 99.0166015625 431.806640625 99.659912109375 Q 433.30078125 100.30322265625 434.400634765625 101.403076171875 Q 435.50048828125 102.5029296875 436.143798828125 103.9970703125 Q 436.787109375 105.4912109375 436.787109375 107.19287109375 L 436.787109375 114.66357421875 L 428.61083984375 114.66357421875 L 428.61083984375 107.19287109375 L 407.52685546875 107.19287109375 Z  M 450.400390625 123.9189453125 Q 450.400390625 122.21728515625 451.043701171875 120.743896484375 Q 451.68701171875 119.2705078125 452.786865234375 118.14990234375 Q 453.88671875 117.029296875 455.380859375 116.385986328125 Q 456.875 115.74267578125 458.53515625 115.74267578125 L 479.619140625 115.74267578125 L 479.619140625 107.19287109375 L 452.93212890625 107.19287109375 L 452.93212890625 99.0166015625 L 479.619140625 99.0166015625 Q 481.32080078125 99.0166015625 482.81494140625 99.659912109375 Q 484.30908203125 100.30322265625 485.408935546875 101.403076171875 Q 486.5087890625 102.5029296875 487.152099609375 103.9970703125 Q 487.79541015625 105.4912109375 487.79541015625 107.19287109375 L 487.79541015625 143.21826171875 L 479.619140625 143.21826171875 L 479.619140625 135.74755859375 Q 479.49462890625 137.283203125 478.7890625 138.65283203125 Q 478.08349609375 140.0224609375 476.983642578125 141.039306640625 Q 475.8837890625 142.05615234375 474.47265625 142.63720703125 Q 473.0615234375 143.21826171875 471.484375 143.21826171875 L 458.53515625 143.21826171875 Q 456.875 143.21826171875 455.380859375 142.574951171875 Q 453.88671875 141.931640625 452.786865234375 140.831787109375 Q 451.68701171875 139.73193359375 451.043701171875 138.23779296875 Q 450.400390625 136.74365234375 450.400390625 135.0419921875 L 450.400390625 123.9189453125 Z  M 458.53515625 135.0419921875 L 479.619140625 135.0419921875 L 479.619140625 123.9189453125 L 458.53515625 123.9189453125 L 458.53515625 135.0419921875 Z " fill-rule="evenodd" fill="white" stroke="none"/></mask><path d=" M 123.349609375 143.21826171875 L 101.14501953125 99.59765625 L 101.14501953125 143.21826171875 L 92.63671875 143.21826171875 L 92.63671875 83.70166015625 L 101.93359375 83.70166015625 L 124.5947265625 128.52587890625 L 147.29736328125 83.70166015625 L 156.552734375 83.70166015625 L 156.552734375 143.21826171875 L 148.0859375 143.21826171875 L 148.0859375 99.59765625 L 125.88134765625 143.21826171875 L 123.349609375 143.21826171875 Z  M 208.4326171875 125.28857421875 L 179.17236328125 125.28857421875 L 179.17236328125 135.0419921875 L 208.4326171875 135.0419921875 L 208.4326171875 143.21826171875 L 179.17236328125 143.21826171875 Q 177.51220703125 143.21826171875 176.01806640625 142.574951171875 Q 174.52392578125 141.931640625 173.424072265625 140.831787109375 Q 172.32421875 139.73193359375 171.680908203125 138.23779296875 Q 171.03759765625 136.74365234375 171.03759765625 135.0419921875 L 171.03759765625 107.19287109375 Q 171.03759765625 105.4912109375 171.680908203125 103.9970703125 Q 172.32421875 102.5029296875 173.424072265625 101.403076171875 Q 174.52392578125 100.30322265625 176.01806640625 99.659912109375 Q 177.51220703125 99.0166015625 179.17236328125 99.0166015625 L 200.25634765625 99.0166015625 Q 201.9580078125 99.0166015625 203.4521484375 99.659912109375 Q 204.9462890625 100.30322265625 206.046142578125 101.403076171875 Q 207.14599609375 102.5029296875 207.789306640625 103.9970703125 Q 208.4326171875 105.4912109375 208.4326171875 107.19287109375 L 208.4326171875 125.28857421875 Z  M 179.17236328125 107.19287109375 L 179.17236328125 117.1123046875 L 200.25634765625 117.1123046875 L 200.25634765625 107.19287109375 L 179.17236328125 107.19287109375 Z  M 230.1806640625 107.19287109375 L 230.1806640625 135.0419921875 L 251.2646484375 135.0419921875 L 251.2646484375 127.5712890625 L 259.44091796875 127.5712890625 L 259.44091796875 135.0419921875 Q 259.44091796875 136.74365234375 258.797607421875 138.23779296875 Q 258.154296875 139.73193359375 257.054443359375 140.831787109375 Q 255.95458984375 141.931640625 254.46044921875 142.574951171875 Q 252.96630859375 143.21826171875 251.2646484375 143.21826171875 L 230.1806640625 143.21826171875 Q 228.5205078125 143.21826171875 227.0263671875 142.574951171875 Q 225.5322265625 141.931640625 224.432373046875 140.831787109375 Q 223.33251953125 139.73193359375 222.689208984375 138.23779296875 Q 222.0458984375 136.74365234375 222.0458984375 135.0419921875 L 222.0458984375 107.19287109375 Q 222.0458984375 105.4912109375 222.689208984375 103.9970703125 Q 223.33251953125 102.5029296875 224.432373046875 101.403076171875 Q 225.5322265625 100.30322265625 227.0263671875 99.659912109375 Q 228.5205078125 99.0166015625 230.1806640625 99.0166015625 L 251.2646484375 99.0166015625 Q 252.96630859375 99.0166015625 254.46044921875 99.659912109375 Q 255.95458984375 100.30322265625 257.054443359375 101.403076171875 Q 258.154296875 102.5029296875 258.797607421875 103.9970703125 Q 259.44091796875 105.4912109375 259.44091796875 107.19287109375 L 259.44091796875 114.66357421875 L 251.2646484375 114.66357421875 L 251.2646484375 107.19287109375 L 230.1806640625 107.19287109375 Z  M 273.05419921875 123.9189453125 Q 273.05419921875 122.21728515625 273.697509765625 120.743896484375 Q 274.3408203125 119.2705078125 275.440673828125 118.14990234375 Q 276.54052734375 117.029296875 278.03466796875 116.385986328125 Q 279.52880859375 115.74267578125 281.18896484375 115.74267578125 L 302.27294921875 115.74267578125 L 302.27294921875 107.19287109375 L 275.5859375 107.19287109375 L 275.5859375 99.0166015625 L 302.27294921875 99.0166015625 Q 303.974609375 99.0166015625 305.46875 99.659912109375 Q 306.962890625 100.30322265625 308.062744140625 101.403076171875 Q 309.16259765625 102.5029296875 309.805908203125 103.9970703125 Q 310.44921875 105.4912109375 310.44921875 107.19287109375 L 310.44921875 143.21826171875 L 302.27294921875 143.21826171875 L 302.27294921875 135.74755859375 Q 302.1484375 137.283203125 301.44287109375 138.65283203125 Q 300.7373046875 140.0224609375 299.637451171875 141.039306640625 Q 298.53759765625 142.05615234375 297.12646484375 142.63720703125 Q 295.71533203125 143.21826171875 294.13818359375 143.21826171875 L 281.18896484375 143.21826171875 Q 279.52880859375 143.21826171875 278.03466796875 142.574951171875 Q 276.54052734375 141.931640625 275.440673828125 140.831787109375 Q 274.3408203125 139.73193359375 273.697509765625 138.23779296875 Q 273.05419921875 136.74365234375 273.05419921875 135.0419921875 L 273.05419921875 123.9189453125 Z  M 281.18896484375 135.0419921875 L 302.27294921875 135.0419921875 L 302.27294921875 123.9189453125 L 281.18896484375 123.9189453125 L 281.18896484375 135.0419921875 Z  M 294.47021484375 82 L 306.8798828125 82 L 292.8515625 91.3798828125 L 285.048828125 91.3798828125 L 294.47021484375 82 Z  M 363.1591796875 143.21826171875 L 354.98291015625 143.21826171875 L 354.98291015625 107.19287109375 L 332.197265625 107.19287109375 L 332.197265625 143.21826171875 L 324.0625 143.21826171875 L 324.0625 99.0166015625 L 332.197265625 99.0166015625 L 332.197265625 106.8193359375 Q 332.2802734375 105.20068359375 332.9443359375 103.768798828125 Q 333.6083984375 102.3369140625 334.708251953125 101.278564453125 Q 335.80810546875 100.22021484375 337.2607421875 99.618408203125 Q 338.71337890625 99.0166015625 340.37353515625 99.0166015625 L 354.98291015625 99.0166015625 Q 356.6845703125 99.0166015625 358.1787109375 99.659912109375 Q 359.6728515625 100.30322265625 360.772705078125 101.403076171875 Q 361.87255859375 102.5029296875 362.515869140625 103.9970703125 Q 363.1591796875 105.4912109375 363.1591796875 107.19287109375 L 363.1591796875 143.21826171875 Z  M 385.36376953125 99.0166015625 L 385.36376953125 143.21826171875 L 377.1875 143.21826171875 L 377.1875 99.0166015625 L 385.36376953125 99.0166015625 Z  M 376.7724609375 82 L 385.77880859375 82 L 385.77880859375 90.50830078125 L 376.7724609375 90.50830078125 L 376.7724609375 82 Z  M 407.52685546875 107.19287109375 L 407.52685546875 135.0419921875 L 428.61083984375 135.0419921875 L 428.61083984375 127.5712890625 L 436.787109375 127.5712890625 L 436.787109375 135.0419921875 Q 436.787109375 136.74365234375 436.143798828125 138.23779296875 Q 435.50048828125 139.73193359375 434.400634765625 140.831787109375 Q 433.30078125 141.931640625 431.806640625 142.574951171875 Q 430.3125 143.21826171875 428.61083984375 143.21826171875 L 407.52685546875 143.21826171875 Q 405.86669921875 143.21826171875 404.37255859375 142.574951171875 Q 402.87841796875 141.931640625 401.778564453125 140.831787109375 Q 400.6787109375 139.73193359375 400.035400390625 138.23779296875 Q 399.39208984375 136.74365234375 399.39208984375 135.0419921875 L 399.39208984375 107.19287109375 Q 399.39208984375 105.4912109375 400.035400390625 103.9970703125 Q 400.6787109375 102.5029296875 401.778564453125 101.403076171875 Q 402.87841796875 100.30322265625 404.37255859375 99.659912109375 Q 405.86669921875 99.0166015625 407.52685546875 99.0166015625 L 428.61083984375 99.0166015625 Q 430.3125 99.0166015625 431.806640625 99.659912109375 Q 433.30078125 100.30322265625 434.400634765625 101.403076171875 Q 435.50048828125 102.5029296875 436.143798828125 103.9970703125 Q 436.787109375 105.4912109375 436.787109375 107.19287109375 L 436.787109375 114.66357421875 L 428.61083984375 114.66357421875 L 428.61083984375 107.19287109375 L 407.52685546875 107.19287109375 Z  M 450.400390625 123.9189453125 Q 450.400390625 122.21728515625 451.043701171875 120.743896484375 Q 451.68701171875 119.2705078125 452.786865234375 118.14990234375 Q 453.88671875 117.029296875 455.380859375 116.385986328125 Q 456.875 115.74267578125 458.53515625 115.74267578125 L 479.619140625 115.74267578125 L 479.619140625 107.19287109375 L 452.93212890625 107.19287109375 L 452.93212890625 99.0166015625 L 479.619140625 99.0166015625 Q 481.32080078125 99.0166015625 482.81494140625 99.659912109375 Q 484.30908203125 100.30322265625 485.408935546875 101.403076171875 Q 486.5087890625 102.5029296875 487.152099609375 103.9970703125 Q 487.79541015625 105.4912109375 487.79541015625 107.19287109375 L 487.79541015625 143.21826171875 L 479.619140625 143.21826171875 L 479.619140625 135.74755859375 Q 479.49462890625 137.283203125 478.7890625 138.65283203125 Q 478.08349609375 140.0224609375 476.983642578125 141.039306640625 Q 475.8837890625 142.05615234375 474.47265625 142.63720703125 Q 473.0615234375 143.21826171875 471.484375 143.21826171875 L 458.53515625 143.21826171875 Q 456.875 143.21826171875 455.380859375 142.574951171875 Q 453.88671875 141.931640625 452.786865234375 140.831787109375 Q 451.68701171875 139.73193359375 451.043701171875 138.23779296875 Q 450.400390625 136.74365234375 450.400390625 135.0419921875 L 450.400390625 123.9189453125 Z  M 458.53515625 135.0419921875 L 479.619140625 135.0419921875 L 479.619140625 123.9189453125 L 458.53515625 123.9189453125 L 458.53515625 135.0419921875 Z " fill-rule="evenodd" fill="none" stroke="none" stroke-width="0" mask="url(#_mask_UF8resUWLTjIns2ubrOjOw7KqRKOvGDr)"/><g style="isolation:isolate"><radialGradient id="_rgradient_4" fx="50%" fy="50%" cx="50%" cy="50%" r="50%"><stop offset="0%" style="stop-color:rgb(46,161,219)"/><stop offset="100%" style="stop-color:rgb(0,188,212)"/></radialGradient><path d=" M 116.49422333075043 169.7242798161966 C 86.26042347288774 166.00673873952567 64.7942388683231 138.4587776120377 68.51623120152169 108.25242716942881 C 72.23723436660302 78.05584476197782 99.7508219020164 56.55256635301615 129.97942862726347 60.27554785433199 C 141.11671975145885 61.64678215687573 151.0566228697179 66.25877850357386 158.99469701068352 73.03458010676573 L 180.6488235575265 56.456122461583874 C 178.13139069911435 53.98691154888786 175.45321802164833 51.668548774073116 172.62172428600792 49.51339873860533 L 183.4518787097958 35.18406210003036 C 176.54995817165403 29.926633556823816 168.95685641158076 25.59655012354318 160.74305165793047 22.269235869129062 L 153.98703341708367 38.95650200720891 C 147.49809056789553 36.34262525736443 140.54967912824276 34.51390070059057 133.2656924048115 33.6162306341823 L 135.4657259435997 15.764219038035549 C 126.57434102963022 14.668715348176448 117.81327901510898 14.772578000488124 109.3676379839772 15.937323458555056 L 111.87344811701162 33.76460585177048 C 104.68021756833842 34.78592193283555 97.75319688922131 36.71850914192112 91.22654200556285 39.48323402964684 L 84.20283014298411 22.955471250474233 C 76.12812715582277 26.358209573828987 68.57953796102596 30.803283800740445 61.71322747510532 36.183121898457216 L 72.78201870718081 50.36037393900432 C 67.17207537618776 54.76711790137216 62.113716916578646 59.87740768713715 57.77683295249188 65.62076506794486 L 43.39333935949726 54.78442834342411 C 38.197857469633774 61.661619678634565 33.83398158054742 69.3091256851568 30.53610744222309 77.47099911265124 L 47.221049035227395 84.22825381364459 C 44.58392683462746 90.74316232591065 42.75384217169237 97.6652371644415 41.85456470709356 104.96999641833511 L 23.99977478499745 102.76996287954692 C 22.904348992127556 111.66715915620527 23.013021474409406 120.39483674676919 24.198768208065786 128.90032244899484 L 42.025567145363894 126.39500690001904 C 43.022895899585535 133.58440442223787 44.955854046715075 140.50808665895926 47.74753376563599 147.01211432193554 L 31.16351204979455 154.0323640961039 C 34.595171175977526 162.1079326053679 39.06288498817265 169.68755694984353 44.419724927163244 176.5214721799241 L 58.59598779959309 165.45515386814174 C 62.99803321340398 171.09069192416874 68.11722551222425 176.12197190656804 73.8513094419327 180.48679986996723 L 63.0246171065552 194.81626015455683 C 69.92369378635989 200.07356505174872 77.52310149318062 204.40362375582643 85.73146582218602 207.73095037484202 L 92.49193531956045 191.04505670752485 C 98.98236192092446 193.6560895990322 105.93027877651859 195.48469050979142 113.208454137261 196.38013494793586 L 111.00891518253144 214.23589425478687 C 119.90363853889666 215.3327704154087 128.6627222171834 215.2260292838758 137.10935241643242 214.06153482721862 L 134.6055206196325 196.2352218187581 C 141.79677283207116 195.2151421978396 148.72342257314432 193.2818131126661 155.24698630643636 190.51956114523352 L 162.27378931938148 207.04316941831365 C 170.34540115617648 203.64290401525201 177.8964632712664 199.19790397594934 184.76005354486463 193.81596389598343 L 173.69497169322884 179.63970102355358 C 176.7242990523201 177.25951524141047 179.57681261045215 174.65800309303168 182.25869466835783 171.879924435723 L 163.27903141854117 152.89877743373046 C 151.65136020021703 165.16433844166897 134.56014253225345 171.9537411064731 116.49422333075043 169.7242798161966 Z " fill="url(#_rgradient_4)" stroke-width="0.13333333000000003" stroke="rgba(0,0,0,0)" stroke-linejoin="miter" stroke-linecap="butt"/></g></svg>