<?xml version="1.0" encoding="UTF-8" standalone="no"?>
<!-- Generator: Gravit.io -->
<svg style="isolation:isolate" xmlns="http://www.w3.org/2000/svg" height="260" width="750" xmlns:xlink="http://www.w3.org/1999/xlink" viewBox="0 0 750 260">
 <g id="null">
  <g id="logosvg">
   <g id="null">
    <radialGradient id="_rgradient_1">
     <stop stop-color="#2ea1db" offset="0"/>
     <stop stop-color="#00bcd4" offset="1"/>
    </radialGradient>
    <path d="m24.25 218.94v-201.22 0.004q2.392 3.721 9.968 14.22 7.576 10.5 17.544 24.322 9.968 13.823 21.132 29.373 11.164 15.551 20.999 29.241 9.837 13.69 17.147 23.79t9.7 13.29q0.8-1.33 5.05-7.18t10.5-14.62 14.22-19.8q7.97-11.032 16.35-22.595 8.37-11.563 16.48-22.993t15.02-20.866 11.83-16.48q4.91-7.044 7.04-9.702v201.22h-30.83v-107.92q0-2.12 0.39-4.52 0.4-2.39 0.4-3.45-2.39 3.19-7.57 10.77-5.19 7.57-11.96 17.27-6.78 9.71-14.22 20.47-7.45 10.76-14.09 20.34-6.65 9.56-11.7 16.87t-6.91 10.24q-1.86-2.39-7.31-9.97t-12.76-17.68q-7.309-10.1-15.416-21.53t-15.018-21.26q-6.912-9.84-11.962-16.88-5.05-7.05-5.848-8.64 0 1.06 0.399 3.45 0.399 2.4 0.399 4.52v107.92h-28.974z" fill="url(#_rgradient_1)"/>
   </g>
   <g id="null">
    <linearGradient id="_lgradient_3" y1="50%" y2="50%">
     <stop stop-color="#424242" offset="0"/>
     <stop stop-color="#555" offset="1"/>
    </linearGradient>
    <rect height="26.581" width="37.973" y="17.686" x="230.33" fill="url(#_lgradient_3)"/>
   </g>
   <g id="null">
    <rect height="26.581" width="75.946" y="112.62" x="230.33" fill="url(#_lgradient_3)"/>
   </g>
   <g id="null">
    <rect height="26.581" width="113.92" y="192.36" x="230.33" fill="url(#_lgradient_3)"/>
   </g>
  </g>
  <path fill="url(#_lgradient_3)" d="m360.93 208.64h35.67v-13.27h-25.09q-2.2 0-4.13-0.83-1.94-0.83-3.36-2.26-1.42-1.42-2.26-3.35-0.83-1.94-0.83-4.14v-12.19q0-2.2 0.83-4.14 0.84-1.93 2.26-3.36 1.42-1.42 3.36-2.25 1.93-0.83 4.13-0.83h33.46v10.58h-33.46v12.19h25.09q2.2 0 4.1 0.83 1.91 0.84 3.36 2.26t2.28 3.36q0.84 1.93 0.84 4.13v13.27q0 2.2-0.84 4.13-0.83 1.94-2.28 3.36t-3.36 2.26q-1.9 0.83-4.1 0.83h-35.67v-10.58zm113.33-36.04v36.04q0 2.2-0.83 4.13-0.83 1.94-2.26 3.36-1.42 1.42-3.35 2.26-1.94 0.83-4.14 0.83h-29.49v23.09h-10.53v-80.29h10.53v9.66q0.16-2.04 1.08-3.78 0.91-1.75 2.31-3.06 1.39-1.32 3.25-2.07 1.85-0.75 3.94-0.75h18.91q2.2 0 4.14 0.83 1.93 0.83 3.35 2.25 1.43 1.43 2.26 3.36 0.83 1.94 0.83 4.14zm-40.07 36.04h29.49v-36.04h-29.49v36.04zm57.69 0v-14.4q0-2.2 0.83-4.11 0.83-1.9 2.26-3.35 1.42-1.45 3.35-2.28 1.94-0.84 4.08-0.84h27.29v-11.06h-34.54v-10.58h34.54q2.2 0 4.14 0.83 1.93 0.83 3.35 2.25 1.43 1.43 2.26 3.36 0.83 1.94 0.83 4.14v46.62h-10.58v-9.67q-0.16 1.99-1.07 3.76-0.92 1.77-2.34 3.09t-3.25 2.07-3.87 0.75h-16.76q-2.14 0-4.08-0.83-1.93-0.84-3.35-2.26-1.43-1.42-2.26-3.36-0.83-1.93-0.83-4.13zm10.52-14.4v14.4h27.29v-14.4h-27.29zm87.82-21.64h-21.8v46.62h-10.53v-57.2h10.53v10.09q0.1-2.09 0.96-3.94 0.86-1.86 2.29-3.23 1.42-1.37 3.3-2.14 1.88-0.78 4.03-0.78h11.22q2.2 0 4.11 0.83t3.36 2.25q1.45 1.43 2.28 3.36 0.83 1.94 0.83 4.14v9.67h-10.58v-9.67zm22.62 0v-10.58h47.31v2.84l-30.45 43.78h30.45v10.58h-48.39v-2.85l30.46-43.77h-29.38zm62.73 36.04v-14.4q0-2.2 0.83-4.11 0.83-1.9 2.26-3.35 1.42-1.45 3.36-2.28 1.93-0.84 4.08-0.84h27.28v-11.06h-34.53v-10.58h34.53q2.2 0 4.14 0.83 1.93 0.83 3.36 2.25 1.42 1.43 2.25 3.36 0.83 1.94 0.83 4.14v46.62h-10.58v-9.67q-0.16 1.99-1.07 3.76t-2.34 3.09q-1.42 1.32-3.25 2.07-1.82 0.75-3.87 0.75h-16.75q-2.15 0-4.08-0.83-1.94-0.84-3.36-2.26-1.43-1.42-2.26-3.36-0.83-1.93-0.83-4.13zm10.53-14.4v14.4h27.28v-14.4h-27.28z" fill-rule="evenodd"/>
 </g>
</svg>
