<?xml version="1.0" encoding="UTF-8" standalone="no"?>
<!-- Generator: Gravit.io -->
<svg style="isolation:isolate" xmlns="http://www.w3.org/2000/svg" height="230" width="800" xmlns:xlink="http://www.w3.org/1999/xlink" viewBox="0 0 800 230">
 <g id="Layer 1" style="isolation:isolate">
  <radialGradient id="_rgradient_0">
   <stop stop-color="#2ea1db" offset="0"/>
   <stop stop-color="#00bcd4" offset="1"/>
  </radialGradient>
  <path fill="url(#_rgradient_0)" d="m549.83 179.96l6.6-1.54 2.64-37.84v-46.2l-2.64-37.62-6.6-1.54 0.22-4.18h37.62l0.22 4.62-8.8 1.1-2.64 37.84v46.2l1.98 28.38h19.36l25.3-2.42 3.74-8.8 3.74 0.88-6.82 31.24-3.96-0.22 0.22-5.72h-69.96l-0.22-4.18zm92.84 0l6.6-1.54 2.64-37.84v-46.2l-2.64-37.4-6.6-1.54 0.22-4.18q35.64-0.88 47.3-0.88 49.94 0 49.94 38.28 0 17.16-10.23 27.06t-29.37 10.78l44.88 51.92 6.82 1.54-0.22 4.18h-42.9l-0.22-4.62 9.24-1.1-23.76-34.54-22.44-25.74 0.44-2.2q28.16-0.88 37.73-6.16t9.57-20.24q0-25.96-30.36-25.96-8.58 0-18.04 2.42l-1.98 28.6v46.2l2.64 37.62 9.24 1.1-0.22 4.62h-38.06l-0.22-4.18z" fill-rule="evenodd"/>
  <path fill="#424242" d="m145.76 142.69h-2.53l-22.21-43.625v43.625h-8.5v-59.521h9.29l22.67 44.821 22.7-44.821h9.25v59.521h-8.46v-43.625l-22.21 43.625zm82.55-36.03v18.1h-29.26v9.75h29.26v8.18h-29.26q-1.66 0-3.15-0.65-1.5-0.64-2.6-1.74t-1.74-2.6q-0.64-1.49-0.64-3.19v-27.85q0-1.7 0.64-3.2 0.64-1.49 1.74-2.59 1.1-1.099 2.6-1.743 1.49-0.643 3.15-0.643h21.09q1.7 0 3.19 0.643 1.5 0.644 2.6 1.743 1.1 1.1 1.74 2.59 0.64 1.5 0.64 3.2zm-8.17 0h-21.09v9.92h21.09v-9.92zm51 0h-21.08v27.85h21.08v-7.47h8.18v7.47q0 1.7-0.64 3.19-0.65 1.5-1.75 2.6-1.09 1.1-2.59 1.74-1.49 0.65-3.2 0.65h-21.08q-1.66 0-3.15-0.65-1.5-0.64-2.6-1.74t-1.74-2.6q-0.64-1.49-0.64-3.19v-27.85q0-1.7 0.64-3.2 0.64-1.49 1.74-2.59 1.1-1.099 2.6-1.743 1.49-0.643 3.15-0.643h21.08q1.71 0 3.2 0.643 1.5 0.644 2.59 1.743 1.1 1.1 1.75 2.59 0.64 1.5 0.64 3.2v7.47h-8.18v-7.47zm21.79 27.85v-11.12q0-1.71 0.65-3.18 0.64-1.47 1.74-2.59t2.6-1.77q1.49-0.64 3.15-0.64h21.08v-8.55h-26.68v-8.176h26.68q1.71 0 3.2 0.643 1.49 0.644 2.59 1.743 1.1 1.1 1.75 2.59 0.64 1.5 0.64 3.2v36.03h-8.18v-7.47q-0.12 1.53-0.83 2.9-0.7 1.37-1.8 2.39-1.1 1.01-2.51 1.59-1.41 0.59-2.99 0.59h-12.95q-1.66 0-3.15-0.65-1.5-0.64-2.6-1.74t-1.74-2.6q-0.65-1.49-0.65-3.19zm8.14-11.12v11.12h21.08v-11.12h-21.08zm3.86-32.543l9.42-9.379h12.41l-14.03 9.379h-7.8zm78.11 15.813v36.03h-8.18v-36.03h-22.78v36.03h-8.14v-44.206h8.14v7.806q0.08-1.62 0.74-3.05 0.67-1.44 1.77-2.49 1.1-1.062 2.55-1.664t3.11-0.602h14.61q1.7 0 3.2 0.643 1.49 0.644 2.59 1.743 1.1 1.1 1.75 2.59 0.64 1.5 0.64 3.2zm14.03-8.176h8.17v44.206h-8.17v-44.206zm-0.42-8.508v-8.508h9.01v8.508h-9.01zm51.84 16.684h-21.08v27.85h21.08v-7.47h8.18v7.47q0 1.7-0.65 3.19-0.64 1.5-1.74 2.6t-2.59 1.74q-1.5 0.65-3.2 0.65h-21.08q-1.66 0-3.16-0.65-1.49-0.64-2.59-1.74t-1.74-2.6q-0.65-1.49-0.65-3.19v-27.85q0-1.7 0.65-3.2 0.64-1.49 1.74-2.59 1.1-1.099 2.59-1.743 1.5-0.643 3.16-0.643h21.08q1.7 0 3.2 0.643 1.49 0.644 2.59 1.743 1.1 1.1 1.74 2.59 0.65 1.5 0.65 3.2v7.47h-8.18v-7.47zm21.79 27.85v-11.12q0-1.71 0.64-3.18 0.65-1.47 1.75-2.59t2.59-1.77q1.5-0.64 3.16-0.64h21.08v-8.55h-26.69v-8.176h26.69q1.7 0 3.2 0.643 1.49 0.644 2.59 1.743 1.1 1.1 1.74 2.59 0.65 1.5 0.65 3.2v36.03h-8.18v-7.47q-0.12 1.53-0.83 2.9t-1.81 2.39q-1.1 1.01-2.51 1.59-1.41 0.59-2.99 0.59h-12.94q-1.66 0-3.16-0.65-1.49-0.64-2.59-1.74t-1.75-2.6q-0.64-1.49-0.64-3.19zm8.14-11.12v11.12h21.08v-11.12h-21.08z" fill-rule="evenodd"/>
  <g id="rueda" style="isolation:isolate">
   <path d="m136.37 169.72c-30.23-3.71-51.696-31.26-47.974-61.47 3.721-30.194 31.234-51.697 61.464-47.974 11.14 1.371 21.08 5.983 29.02 12.759l21.65-16.579c-2.52-2.469-5.2-4.787-8.03-6.943l10.83-14.329c-6.9-5.257-14.49-9.587-22.71-12.915l-6.75 16.687c-6.49-2.613-13.44-4.442-20.72-5.34l2.2-17.852c-8.9-1.095-17.66-0.991-26.1 0.173l2.5 17.828c-7.19 1.021-14.12 2.954-20.64 5.718l-7.03-16.528c-8.072 3.403-15.62 7.848-22.487 13.228l11.069 14.177c-5.61 4.407-10.668 9.517-15.005 15.261l-14.384-10.837c-5.195 6.878-9.559 14.525-12.857 22.687l16.685 6.757c-2.637 6.515-4.467 13.437-5.366 20.742l-17.855-2.2c-1.096 8.9-0.987 17.63 0.199 26.13l17.827-2.5c0.997 7.18 2.93 14.11 5.722 20.61l-16.584 7.02c3.431 8.08 7.899 15.66 13.256 22.49l14.176-11.06c4.402 5.63 9.521 10.66 15.255 15.03l-10.826 14.33c6.899 5.25 14.498 9.58 22.705 12.91l6.76-16.69c6.49 2.62 13.44 4.44 20.72 5.34l-2.2 17.86c8.89 1.09 17.65 0.99 26.1-0.18l-2.5-17.82c7.19-1.02 14.11-2.96 20.64-5.72l7.02 16.52c8.07-3.4 15.63-7.84 22.49-13.22l-11.06-14.18c3.02-2.38 5.88-4.98 8.56-7.76l-18.98-18.98c-11.63 12.26-28.72 19.05-46.79 16.82z" fill="url(#_rgradient_0)"/>
  </g>
  <path fill="#424242" d="m311.92 192.06h-15.29q-0.93 0-1.75-0.36t-1.44-0.97q-0.61-0.6-0.96-1.43-0.36-0.82-0.36-1.74v-9.01q0-0.93 0.36-1.75 0.35-0.82 0.96-1.43 0.62-0.6 1.44-0.96 0.82-0.37 1.75-0.37h15.29q0.92 0 1.75 0.37 0.82 0.36 1.44 0.96 0.61 0.61 0.96 1.43t0.35 1.75v4.06h-4.5v-4.06h-15.29v9.01h15.29q0.92 0 1.75 0.35 0.82 0.35 1.44 0.97 0.61 0.61 0.96 1.43 0.35 0.83 0.35 1.75v8.99q0 0.92-0.35 1.74-0.35 0.83-0.96 1.44-0.62 0.62-1.44 0.97-0.83 0.35-1.75 0.35h-15.73q-0.93 0-1.75-0.35t-1.44-0.97q-0.61-0.61-0.96-1.44-0.36-0.82-0.36-1.74v-4.05h4.51v4.05h15.73v-8.99zm22.12 13.49h-4.51v-31.51h17.25q7.65 0 7.65 7.67v4.48q0 7.67-7.65 7.67h-12.74v11.69zm0-27v10.81h12.5q1.8 0 2.59-0.79t0.79-2.6v-4.04q0-1.8-0.79-2.59t-2.59-0.79h-12.5zm41.12-4.51h4.5l12.16 31.51h-4.51l-2.79-7.25h-14.22l-2.79 7.25h-4.5l12.15-31.51zm2.26 5.87l-5.4 13.89h10.76l-5.36-13.89zm49.7 1.8v3.58q0 6.59-5.63 7.52l5.93 12.74h-4.98l-5.85-12.59h-9.87v12.59h-4.5v-31.51h17.25q7.65 0 7.65 7.67zm-20.4-3.16v9.91h12.51q1.8 0 2.59-0.79t0.79-2.6v-3.14q0-1.8-0.79-2.59t-2.59-0.79h-12.51zm32.21 0v-4.51h24.74v1.36l-17.87 25.65h17.87v4.5h-25.38v-1.34l17.86-25.66h-17.22zm45.93-4.51h4.51l12.15 31.51h-4.51l-2.79-7.25h-14.21l-2.79 7.25h-4.51l12.15-31.51zm2.27 5.87l-5.41 13.89h10.77l-5.36-13.89z" fill-rule="evenodd"/>
  <linearGradient id="_lgradient_0" y1="50%" y2="50%">
   <stop stop-color="#2ea1db" offset="0"/>
   <stop stop-color="#00bcd4" offset="1"/>
  </linearGradient>
  <path fill="url(#_lgradient_0)" d="m247.49 205.02v-50.39h8.34v50.39h-8.34zm29.4-28.31v5.61h-18.25v-5.61h18.25zm-18.25 28.31v-6.23h20.37v6.23h-20.37zm0-50.39h20.37v6.22h-20.37v-6.22z" fill-rule="evenodd"/>
 </g>
</svg>
