<?xml version="1.0" encoding="UTF-8" standalone="no"?>
<!-- Generator: Gravit.io -->
<svg style="isolation:isolate" xmlns="http://www.w3.org/2000/svg" height="300" width="500" xmlns:xlink="http://www.w3.org/1999/xlink" viewBox="0 0 500 300">
 <g id="OJ91AN1">
  <g id="g12">
   <path d="m154.28 260.94h35.91v-80.68h-35.91v80.68z" fill="#bbbcbd"/>
   <g id="g56">
    <clipPath id="_clipPath_ePrjovAxjQZ1VhGH24EX2eYynLcdxKwC">
     <path d="m171.61 260.94h18.58v-80.68h-18.58v80.68z" fill="#fff"/>
    </clipPath>
    <g clip-path="url(#_clipPath_ePrjovAxjQZ1VhGH24EX2eYynLcdxKwC)">
     <g id="g58">
      <path d="m171.61 260.94h18.58v-80.68h-18.58v80.68z" fill="#aaacad"/>
     </g>
    </g>
   </g>
   <path d="m201.32 187.14h-61.56v-17.8h61.56v17.8" fill="#ec1d27"/>
   <path d="m261.69 73.536s-93.84-9.067-107.24-6.514c-13.41 2.554-106.27 24.31-112.74 35.488-2.64 4.57 183.59 29.25 219.98-28.974z" fill="#48494d"/>
   <path d="m261.69 73.536s-93.84-9.067-107.24-6.514c-13.41 2.554-103.81 31.327-103.91 36.608-0.103 5.28 174.76 28.13 211.15-30.094z" fill="#ec1d27"/>
   <path d="m261.69 78.14s-93.84-9.067-107.24-6.514c-13.41 2.554-98.079 31.214-98.182 36.494s169.03 28.24 205.42-29.98z" fill="#3b393d"/>
   <path d="m70.716 88.909s-70.716 21.771-70.716 46.731c5.241 6.24 13.935 15.18 24.596 19.88h282c11.12 0 18.54-4.72 24.27-8.09 5.56-3.27 16.3-18.4 16.51-32.9 0.25-17.356-8.85-34.112-32.02-37.295-28.67-3.939-63.21-3.699-63.21-3.699s-75.11 42.314-181.43 15.373" fill="#ec1d27"/>
   <path d="m0.265 135.95c4.746 5.61 12.184 13.23 21.283 18.07 0.812-0.45 1.609-1 1.812-1.54 1.123-2.94-2.317-12.63-2.317-12.63l-20.778-3.9" fill="#3b393d"/>
   <path d="m99.307 133.9c0 17.34-14.054 31.39-31.389 31.39-17.336 0-31.389-14.05-31.389-31.39s14.053-31.39 31.389-31.39c17.335 0 31.389 14.05 31.389 31.39" fill="#3b393d"/>
   <path d="m94.026 133.9c0 14.42-11.689 26.11-26.108 26.11-14.42 0-26.109-11.69-26.109-26.11s11.689-26.11 26.109-26.11c14.419 0 26.108 11.69 26.108 26.11z" fill="#7a7e82"/>
   <path d="m90.943 133.9c0 12.72-10.309 23.03-23.025 23.03-12.717 0-23.026-10.31-23.026-23.03s10.309-23.03 23.026-23.03c12.716 0 23.025 10.31 23.025 23.03z" fill="#63676b"/>
   <path d="m81.545 146.68c-4.832-1.58-9.721-11.51-9.721-11.51s9.795-5.17 14.628-3.6c1.814 0.59 3.345 1.62 4.477 2.89 0.004-0.19 0.014-0.37 0.014-0.56 0-5.26-1.768-10.11-4.737-13.98-0.169 1.69-0.805 3.42-1.928 4.97-2.986 4.11-13.946 5.69-13.946 5.69s-1.885-10.92 1.101-15.03c1.125-1.54 2.577-2.68 4.14-3.37-2.396-0.84-4.971-1.31-7.655-1.31-2.685 0-5.26 0.47-7.655 1.31 1.562 0.69 3.014 1.83 4.139 3.37 2.986 4.11 1.101 15.03 1.101 15.03s-10.96-1.58-13.947-5.69c-1.123-1.55-1.758-3.28-1.927-4.97-2.969 3.87-4.737 8.72-4.737 13.98 0 0.19 0.009 0.37 0.014 0.56 1.132-1.27 2.663-2.3 4.478-2.89 4.832-1.57 14.627 3.6 14.627 3.6s-4.889 9.93-9.721 11.51c-1.818 0.58-3.66 0.66-5.325 0.29 2.947 4.27 7.295 7.49 12.38 9-0.862-1.47-1.366-3.25-1.366-5.16 0-5.08 7.939-12.8 7.939-12.8s7.939 7.72 7.939 12.8c0 1.91-0.505 3.69-1.367 5.16 5.085-1.51 9.433-4.73 12.38-9-1.664 0.37-3.508 0.29-5.325-0.29" fill="#a4a6a9"/>
   <path d="m75.857 133.9c0 4.38-3.555 7.94-7.939 7.94-4.385 0-7.939-3.56-7.939-7.94s3.554-7.94 7.939-7.94c4.384 0 7.939 3.56 7.939 7.94z" fill="#a4a6a9"/>
   <path d="m72.339 133.9c0 2.44-1.98 4.42-4.421 4.42-2.443 0-4.422-1.98-4.422-4.42s1.979-4.42 4.422-4.42c2.441 0 4.421 1.98 4.421 4.42z" fill="#505256"/>
   <path d="m190.19 144.99h-4.2l4.2-0.27v0.27z" fill="#f5758d"/>
   <path d="m16.244 173.38h299.86v-8.09h-299.86l0.004 8.09z" fill="#3b393d"/>
   <path d="m36.529 169.34l-32.421-21.2v17.15l12.136 8.09 20.285-4.04z" fill="#3b393d"/>
   <path d="m224.64 272.03h-104v-11.09h104v11.09z" fill="#ec1d27"/>
   <path d="m207.15 155.52h-16.96v-10.53h16.96v10.53z" fill="#c61e25"/>
   <path d="m207.15 73.474c-5.74-0.427-11.47-0.828-16.96-1.171v-4.604c5.49 0.344 11.22 0.744 16.96 1.171v4.604z" fill="#c61e25"/>
   <path d="m190.19 93.574v-21.271c5.49 0.343 11.22 0.744 16.96 1.171v16.466c-5.25 1.31-10.91 2.545-16.96 3.634" fill="#353335"/>
   <path d="m190.19 144.72v-51.146c6.05-1.089 11.71-2.324 16.96-3.634v53.71l-16.96 1.07" fill="#c61e25"/>
   <path d="m207.15 144.99h-16.96v-0.27l16.96-1.07v1.34" fill="#cb6375"/>
   <path d="m383.08 226.46h-59.01s0.69 52.42-12.69 59.21h42.19 42.2c-13.38-6.79-12.69-59.21-12.69-59.21" fill="#cdccca"/>
   <path d="m383.58 240.74h-0.16c-0.11-2.05-0.18-3.95-0.23-5.67h0.39v5.67z" fill="#2b8078"/>
   <path d="m323.73 240.74h-0.16v-5.67h0.39c-0.05 1.72-0.12 3.62-0.23 5.67z" fill="#dbdad8"/>
   <path d="m383.42 240.74h-59.69c0.11-2.05 0.18-3.95 0.23-5.67h59.23c0.05 1.72 0.12 3.62 0.23 5.67z" fill="#acacaa"/>
   <path d="m488.96 235.07h-270.78c-6.09 0-11.03-4.94-11.03-11.03v-202.45c0-6.093 4.94-11.031 11.03-11.031h270.78c6.1 0 11.04 4.938 11.04 11.03v202.45c0 6.09-4.94 11.03-11.04 11.03z" fill="#e5dfe0"/>
   <path d="m207.15 195.24h292.85v-175.77l-292.85-0.001v175.77z" fill="#464648"/>
   <path d="m397.79 289.44h-88.43c-1.07 0-1.95-0.87-1.95-1.95v-3.64c0-1.07 0.88-1.95 1.95-1.95h88.43c1.07 0 1.95 0.88 1.95 1.95v3.64c0 1.08-0.88 1.95-1.95 1.95z" fill="#eff4f4"/>
   <path d="m207.15 104.12v-61.318c5.09-1.405 9-2.392 11.3-2.831 2.35-0.446 6.42-0.642 11.78-0.642 17.12 0 47.26 2.004 75.21 4.205v6.523c-27.95-2.201-58.09-4.204-75.21-4.204-5.36 0-9.43 0.195-11.78 0.642-2.35 0.448-6.26 1.466-11.3 2.918v54.707" fill="#c9c8c6"/>
   <path d="m207.15 110.66v-61.247c5.04-1.452 8.95-2.47 11.3-2.918 2.35-0.447 6.42-0.642 11.78-0.642 17.12 0 47.26 2.003 75.21 4.204v19.08c-25.15 7.229-58.6 13.812-98.29 14.498v27.025z" fill="#989a9b"/>
   <path d="m305.44 165.35h-98.29v-54.69-27.025c39.69-0.686 73.14-7.269 98.29-14.498v35.233h-11.27l11.27 1.37v42.02l-42.3 2.67h42.3v14.92zm143.6-2.17c6.43-7.71 10.3-17.63 10.3-28.46 0-24.56-19.92-44.468-44.48-44.468-9.67 0-18.61 3.084-25.91 8.323v-48.754c16.93 0.649 38.15 1.964 57.49 4.621 30.01 4.122 43.36 24.318 45.16 46.538-0.92-11.344-4.85-22.159-12.47-30.578 0-0.001 0-0.003-0.01-0.005-0.01-0.017-0.02-0.032-0.04-0.049-0.01-0.007-0.01-0.014-0.02-0.022s-0.02-0.016-0.02-0.024c-0.02-0.014-0.03-0.028-0.04-0.042 0-0.005-0.01-0.01-0.02-0.016-0.01-0.013-0.02-0.027-0.03-0.04 0-0.004-0.01-0.008-0.01-0.012-0.02-0.017-0.04-0.034-0.05-0.051 0-0.003 0-0.006-0.01-0.009-0.01-0.018-0.03-0.035-0.04-0.053-0.01-0.002-0.01-0.003-0.01-0.004-0.04-0.038-0.07-0.075-0.11-0.112v-0.006c-0.02-0.017-0.03-0.036-0.05-0.054 0-0.002 0-0.005-0.01-0.007-0.01-0.018-0.03-0.036-0.05-0.054-0.01 0.005-0.01 0.01-0.02 0.016-0.01 0.001-0.01 0.002-0.01 0.003 0 0.005-0.01 0.01-0.02 0.015v0.001c-0.01 0.005-0.02 0.011-0.03 0.017v0.001l-0.03 0.015v0.002c-0.02 0.011-0.04 0.022-0.05 0.033-0.01 0.001-0.01 0.002-0.01 0.003 0 0.005-0.01 0.01-0.02 0.014v0.003c-0.01 0.005-0.02 0.011-0.03 0.016v0.003c-0.01 0.004-0.01 0.008-0.02 0.012 0 0.002-0.01 0.004-0.01 0.006-0.01 0.003-0.01 0.007-0.02 0.01-0.01 0.005-0.01 0.011-0.02 0.016v0.003c-0.01 0.004-0.02 0.008-0.02 0.012 0 0 0 0.001-0.01 0.001-4.57 2.994-7.18 8.635-5.84 14.468l4.07 17.608c1.43 6.18 6.93 10.55 13.27 10.55h1.6c0.23-1.74 0.38-3.49 0.41-5.23-0.38 20.5-15.54 41.84-23.39 46.46-5.21 3.06-11.42 6.92-19.37 9.28m42.76-55.78v-0.01 0.01zm0-0.06v-0.01 0.01zm0-0.07v-0.07 0.07zm0-0.1v-0.05 0.05zm0-0.09v-0.03 0.03zm0-0.07v-0.04 0.04zm0-0.08v-0.03 0.03zm0-0.08v-0.03 0.03zm0-0.08v-0.01 0.01zm0.01-0.29zm0-0.06v-0.01 0.01zm0-0.08v-0.01 0.01zm0-0.07v-0.01 0.01zm0-0.07v-0.01 0.01zm-0.1-3.59zm-0.01-0.07v-0.01 0.01zm0-0.07v-0.01 0.01zm-0.01-0.07v-0.02 0.02zm0-0.08v-0.01 0.01zm-0.01-0.07zm-0.01-0.21zm0-0.06v-0.02 0.02zm0-0.07c-0.01-0.01-0.01-0.02-0.01-0.03 0 0.01 0 0.02 0.01 0.03zm-0.01-0.07v-0.03 0.03zm-0.01-0.08v-0.03 0.03zm0-0.07v-0.04 0.04zm-0.01-0.08v-0.04 0.04zm0-0.07c0-0.03-0.01-0.05-0.01-0.08 0 0.03 0.01 0.06 0.01 0.08zm-0.01-0.1v-0.05 0.05zm-0.01-0.08v-0.05 0.05zm0-0.08v-0.05 0.05zm0-0.07c-0.01-0.02-0.01-0.04-0.01-0.06 0 0.02 0 0.04 0.01 0.06zm-0.02-0.08v-0.06 0.06zm0-0.07v-0.08 0.08z" fill="#c9c8c6"/>
   <path d="m414.86 179.2c-9.67 0-18.61-3.09-25.91-8.33v-9.75c6.67 6.56 15.82 10.6 25.91 10.6 20.43 0 36.99-16.57 36.99-37s-16.56-36.987-36.99-36.987c-10.09 0-19.24 4.037-25.91 10.587v-9.745c7.3-5.239 16.24-8.323 25.91-8.323 24.56 0 44.48 19.908 44.48 44.468 0 10.83-3.87 20.75-10.3 28.46-8.16 9.79-20.44 16.02-34.18 16.02" fill="#989a9b"/>
   <path d="m414.86 171.72c-10.09 0-19.24-4.04-25.91-10.6v-6.57c5.96 7.78 15.35 12.8 25.91 12.8 18.02 0 32.62-14.61 32.62-32.63v-0.04-0.02-0.03-0.02-0.03-0.02-0.03-0.02-0.04-0.03-0.02-0.03-0.02-0.03-0.02-0.03-0.01c-0.23-17.75-14.65-32.08-32.43-32.18h-0.01-0.04-0.02-0.02-0.03-0.02-0.05-0.05-0.01-0.04-0.02-0.02-0.03-0.01c-10.49 0.06-19.8 5.06-25.73 12.8v-6.58c6.67-6.55 15.82-10.587 25.91-10.587 20.43 0 36.99 16.557 36.99 36.987s-16.56 37-36.99 37" fill="#c9c8c6"/>
   <path d="m414.86 167.35c-10.56 0-19.95-5.02-25.91-12.8v-0.01c4.14 5.4 9.92 9.46 16.6 11.45-1.22-2.08-1.94-4.6-1.94-7.31 0-4.21 3.85-9.69 7.04-13.52 1.3 0.52 2.72 0.81 4.21 0.81s2.91-0.29 4.22-0.81c3.19 3.83 7.03 9.31 7.03 13.52 0 2.71-0.71 5.23-1.94 7.31 7.21-2.14 13.37-6.7 17.55-12.75-0.96 0.21-1.95 0.32-2.96 0.32-1.5 0-3.05-0.24-4.59-0.74-4-1.3-8.03-6.65-10.69-10.87 1.64-1.95 2.63-4.47 2.63-7.23 0-0.26-0.01-0.52-0.03-0.78 3.59-1.43 8.24-2.93 12.01-2.93 1.1 0 2.13 0.13 3.03 0.42 2.57 0.83 4.74 2.29 6.34 4.09 0.01-0.27 0.02-0.53 0.02-0.8 0 18.02-14.6 32.63-32.62 32.63m-23.89-13.79c-0.69 0-1.36-0.05-2.02-0.14v-22.09c0.82-0.22 1.72-0.32 2.68-0.32 3.78 0 8.43 1.5 12.01 2.93-0.02 0.26-0.03 0.52-0.03 0.78 0 2.76 0.99 5.28 2.63 7.23-2.65 4.22-6.68 9.57-10.69 10.87-1.53 0.5-3.08 0.74-4.58 0.74m56.51-18.88v-0.02 0.02zm0-0.05v-0.02 0.02zm0-0.05v-0.02 0.02zm0-0.05v-0.02 0.02zm0-0.06v-0.03 0.03zm0-0.05v-0.03 0.03zm0-0.05v-0.03 0.03zm0-0.05v-0.03 0.03zm0-0.04c-0.09-7.28-2.58-13.98-6.71-19.37-0.24 2.4-1.14 4.85-2.73 7.04-2.47 3.41-8.8 5.59-13.64 6.81-1.52-2.43-3.95-4.24-6.82-4.95-0.32-4.98-0.21-11.67 2.26-15.08 1.6-2.19 3.65-3.81 5.87-4.77-3.34-1.18-6.93-1.84-10.66-1.86 17.78 0.1 32.2 14.43 32.43 32.18m-42.16-5.52c-4.83-1.22-11.17-3.4-13.64-6.81-1.59-2.19-2.49-4.64-2.73-7.04v-0.01c5.93-7.74 15.24-12.74 25.73-12.8-3.74 0.02-7.32 0.68-10.66 1.86 2.21 0.96 4.27 2.58 5.86 4.77 2.47 3.41 2.59 10.1 2.26 15.08-2.86 0.71-5.29 2.52-6.82 4.95m9.37-26.66h0.03-0.03zm0.35 0h-0.04 0.04zm-0.3 0h0.02-0.02zm0.24 0h-0.02 0.02zm-0.18 0h0.01-0.01zm0.13 0h-0.02 0.02z" fill="#b3b4b3"/>
   <path d="m424.17 165.99c1.23-2.08 1.94-4.6 1.94-7.31 0-4.21-3.84-9.69-7.03-13.52 1.72-0.7 3.23-1.81 4.4-3.21 2.66 4.22 6.69 9.57 10.69 10.87 1.54 0.5 3.09 0.74 4.59 0.74 1.01 0 2-0.11 2.96-0.32-4.18 6.05-10.34 10.61-17.55 12.75zm-18.62 0c-6.68-1.99-12.46-6.05-16.6-11.45v-1.12c0.66 0.09 1.33 0.14 2.02 0.14 1.5 0 3.05-0.24 4.58-0.74 4.01-1.3 8.04-6.65 10.69-10.87 1.18 1.4 2.69 2.51 4.41 3.21-3.19 3.83-7.04 9.31-7.04 13.52 0 2.71 0.72 5.23 1.94 7.31zm41.91-30.47c-1.6-1.8-3.77-3.26-6.34-4.09-0.9-0.29-1.93-0.42-3.03-0.42-3.77 0-8.42 1.5-12.01 2.93-0.13-1.89-0.73-3.66-1.68-5.18 4.84-1.22 11.17-3.4 13.64-6.81 1.59-2.19 2.49-4.64 2.73-7.04 4.13 5.39 6.62 12.09 6.71 19.37v0.01 0.03 0.02 0.03 0.02 0.03 0.02 0.03 0.04 0.02 0.03 0.02 0.03 0.02 0.03 0.02 0.04c0 0.27-0.01 0.53-0.02 0.8zm-43.82-1.58c-3.58-1.43-8.23-2.93-12.01-2.93-0.96 0-1.86 0.1-2.68 0.32v-16.42c0.24 2.4 1.14 4.85 2.73 7.04 2.47 3.41 8.81 5.59 13.64 6.81-0.95 1.52-1.55 3.29-1.68 5.18m8.5-10.13c0.33-4.98 0.21-11.67-2.26-15.08-1.59-2.19-3.65-3.81-5.86-4.77 3.34-1.18 6.92-1.84 10.66-1.86h0.01 0.03 0.02 0.02 0.04 0.01 0.05 0.05 0.02 0.03 0.02 0.02 0.04 0.01c3.73 0.02 7.32 0.68 10.66 1.86-2.22 0.96-4.27 2.58-5.87 4.77-2.47 3.41-2.58 10.1-2.26 15.08-0.87-0.22-1.78-0.33-2.72-0.33s-1.85 0.11-2.72 0.33" fill="#c9c8c6"/>
   <path d="m414.86 145.97c-1.49 0-2.91-0.29-4.21-0.81-1.72-0.7-3.23-1.81-4.41-3.21-1.64-1.95-2.63-4.47-2.63-7.23 0-0.26 0.01-0.52 0.03-0.78 0.13-1.89 0.73-3.66 1.68-5.18 1.53-2.43 3.96-4.24 6.82-4.95 0.87-0.22 1.78-0.33 2.72-0.33s1.85 0.11 2.72 0.33c2.87 0.71 5.3 2.52 6.82 4.95 0.95 1.52 1.55 3.29 1.68 5.18 0.02 0.26 0.03 0.52 0.03 0.78 0 2.76-0.99 5.28-2.63 7.23-1.17 1.4-2.68 2.51-4.4 3.21-1.31 0.52-2.73 0.81-4.22 0.81m0-17.51c-3.46 0-6.26 2.8-6.26 6.26s2.8 6.27 6.26 6.27 6.27-2.81 6.27-6.27-2.81-6.26-6.27-6.26z" fill="#c9c8c6"/>
   <path d="m414.86 140.99c-3.46 0-6.26-2.81-6.26-6.27s2.8-6.26 6.26-6.26 6.27 2.8 6.27 6.26-2.81 6.27-6.27 6.27z" fill="#c9c8c6"/>
   <path d="m305.44 150.43h-42.3l42.3-2.67v2.67zm0-44.69l-11.27-1.37h11.27v1.37z" fill="#c9c8c6"/>
   <path d="m491.39 112.67h-1.6c-6.34 0-11.84-4.37-13.27-10.55l-4.07-17.608c-1.34-5.833 1.27-11.474 5.84-14.468-3.25 2.126-5.49 5.591-6.05 9.508 0.91 6.61 6.57 11.705 13.43 11.705 1.45 0 2.85-0.234 4.16-0.657-1.97-7.461-5.45-14.4-10.7-20.198 7.62 8.419 11.55 19.234 12.47 30.578v0.08 0.01 0.06c0.01 0.01 0.01 0.01 0.01 0.02 0 0.02 0 0.04 0.01 0.06v0.02 0.05 0.03 0.05c0 0.01 0.01 0.02 0.01 0.03v0.05 0.02c0 0.03 0.01 0.05 0.01 0.08v0.03 0.04c0 0.02 0.01 0.03 0.01 0.04v0.04 0.04 0.03c0.01 0.02 0.01 0.03 0.01 0.05v0.03 0.04c0 0.01 0 0.02 0.01 0.03v0.05 0.02 0.06c0.01 0.07 0.01 0.14 0.01 0.21 0.01 0.02 0.01 0.04 0.01 0.06v0.01 0.06 0.02c0 0.02 0.01 0.04 0.01 0.06v0.01 0.06 0.01c0 0.02 0.01 0.05 0.01 0.07 0.06 1.19 0.09 2.39 0.1 3.58v0.01 0.06 0.01 0.06 0.01 0.07 0.01 0.06c0 0.1 0 0.18-0.01 0.28v0.01 0.05 0.03 0.05 0.03 0.04 0.04 0.04 0.03 0.04 0.05 0.03 0.07 0.06 0.01 0.05 0.01 0.04c-0.03 1.74-0.18 3.49-0.41 5.23m-12.27-42.273c-0.01-0.016-0.02-0.032-0.04-0.049 0.02 0.017 0.03 0.032 0.04 0.049zm-0.06-0.071c-0.01-0.008-0.02-0.016-0.02-0.024 0 0.008 0.01 0.016 0.02 0.024zm-0.06-0.066c0-0.005-0.01-0.01-0.02-0.016 0.01 0.006 0.02 0.011 0.02 0.016zm-0.05-0.056c0-0.004-0.01-0.008-0.01-0.012 0 0.004 0.01 0.008 0.01 0.012zm-0.06-0.063c0-0.003 0-0.006-0.01-0.009 0.01 0.003 0.01 0.006 0.01 0.009zm-0.05-0.062c-0.01-0.002-0.01-0.003-0.01-0.004 0 0.001 0 0.002 0.01 0.004zm-0.54-0.036c0-0.004 0.01-0.008 0.02-0.012-0.01 0.004-0.02 0.008-0.02 0.012zm0.02-0.015c0.01-0.005 0.01-0.011 0.02-0.016-0.01 0.006-0.01 0.011-0.02 0.016zm0.04-0.026c0-0.002 0.01-0.004 0.01-0.006 0 0.002-0.01 0.004-0.01 0.006zm0.03-0.018v-0.003 0.003zm0.03-0.019v-0.003 0.003zm0.3-0.002v-0.006 0.006zm-0.28-0.015c0-0.001 0-0.002 0.01-0.003-0.01 0.001-0.01 0.002-0.01 0.003zm0.06-0.036v-0.002 0.002zm0.17-0.009c0-0.002 0-0.004-0.01-0.007 0.01 0.002 0.01 0.005 0.01 0.007zm-0.14-0.008v-0.001 0.001zm0.03-0.018v-0.001 0.001zm0.02-0.016c0-0.001 0-0.002 0.01-0.003-0.01 0.001-0.01 0.002-0.01 0.003z" fill="#989a9b"/>
   <path d="m485.67 91.257c-6.86 0-12.52-5.095-13.43-11.705 0.56-3.917 2.8-7.382 6.05-9.508 0.01 0 0.01-0.001 0.01-0.001 0-0.004 0.01-0.008 0.02-0.012v-0.003c0.01-0.005 0.01-0.01 0.02-0.016 0.01-0.003 0.01-0.007 0.02-0.01 0-0.002 0.01-0.004 0.01-0.006 0.01-0.004 0.01-0.008 0.02-0.012v-0.003c0.01-0.005 0.02-0.011 0.03-0.016v-0.003c0.01-0.004 0.02-0.009 0.02-0.014 0-0.001 0-0.002 0.01-0.003 0.01-0.011 0.03-0.022 0.05-0.033v-0.002l0.03-0.015v-0.001c0.01-0.006 0.02-0.012 0.03-0.017v-0.001c0.01-0.005 0.02-0.01 0.02-0.015 0-0.001 0-0.002 0.01-0.003 0.01-0.006 0.01-0.011 0.02-0.016 0.02 0.018 0.04 0.036 0.05 0.054 0.01 0.003 0.01 0.005 0.01 0.007 0.02 0.018 0.03 0.037 0.05 0.054v0.006c0.04 0.037 0.07 0.074 0.11 0.112 0 0.001 0 0.002 0.01 0.004 0.01 0.018 0.03 0.035 0.04 0.053 0.01 0.003 0.01 0.006 0.01 0.009 0.01 0.017 0.03 0.034 0.05 0.051 0 0.004 0.01 0.008 0.01 0.012 0.01 0.013 0.02 0.027 0.03 0.04 0.01 0.006 0.02 0.011 0.02 0.016 0.01 0.014 0.02 0.028 0.04 0.042 0 0.008 0.01 0.016 0.02 0.024s0.01 0.015 0.02 0.022c0.02 0.017 0.03 0.033 0.04 0.049 0.01 0.002 0.01 0.004 0.01 0.005 5.25 5.798 8.73 12.737 10.7 20.198-1.31 0.423-2.71 0.657-4.16 0.657" fill="#989a9b"/>
   <path d="m388.95 195.24h-9.57v-29.89h3.24c1.93 2.03 4.05 3.88 6.33 5.52v24.37m-12.17 0h-71.34v-29.89h71.34v29.89m12.17-145.42c-3.37-0.129-6.58-0.232-9.57-0.314v-30.038h-2.6v29.971c-2.32-0.057-4.48-0.1-6.46-0.134 0.02-0.034 0.05-0.071 0.07-0.106 0 0-30.85-2.981-64.95-5.666v-24.065h83.51v30.352z" fill="#36847c"/>
   <path d="m347.9 53.646c-11.64-1.044-26.71-2.349-42.46-3.589v-6.523c34.1 2.685 64.95 5.666 64.95 5.666-0.02 0.035-0.05 0.072-0.07 0.106-5.53-0.094-9.65-0.109-11.79-0.109-1.08 0-1.65 0.003-1.65 0.003s-3.1 1.743-8.98 4.446" fill="#6bc9b7"/>
   <path d="m305.44 69.137v-19.08c15.75 1.24 30.82 2.545 42.46 3.589-8.56 3.936-23.03 9.906-42.46 15.491z" fill="#55b1a3"/>
   <path d="m382.62 165.35h-3.24v-3.81c1.01 1.33 2.09 2.6 3.24 3.81zm-5.84 0h-71.34v-14.92h31.22l18.61-46.06h-49.83v-35.233c19.43-5.585 33.9-11.555 42.46-15.491 5.88-2.703 8.98-4.446 8.98-4.446s0.57-0.003 1.65-0.003c2.14 0 6.26 0.015 11.79 0.109 1.98 0.034 4.14 0.077 6.46 0.134v62.31c-4.06 6.7-6.39 14.57-6.39 22.97 0 8.41 2.33 16.28 6.39 22.98v7.65m-71.34-17.59v-42.02l41.72 5.06-13.37 35.17-28.35 1.79m73.94-39.85v-58.403c2.99 0.082 6.2 0.185 9.57 0.314v48.754c-3.64 2.615-6.87 5.765-9.57 9.335" fill="#6bc9b7"/>
   <path d="m388.95 170.87c-2.28-1.64-4.4-3.49-6.33-5.52-1.15-1.21-2.23-2.48-3.24-3.81v-16.32c1.8 6.1 5.14 11.56 9.57 15.9v9.75m-12.17-13.17c-4.06-6.7-6.39-14.57-6.39-22.98 0-8.4 2.33-16.27 6.39-22.97v45.95m2.6-33.47v-16.32c2.7-3.57 5.93-6.72 9.57-9.335v9.745c-4.43 4.35-7.77 9.8-9.57 15.91" fill="#55b1a3"/>
   <path d="m388.95 161.12c-4.43-4.34-7.77-9.8-9.57-15.9v-20.99c1.8-6.11 5.14-11.56 9.57-15.91v6.58c-4.13 5.39-6.61 12.09-6.71 19.38v0.01 0.03 0.02 0.03 0.02 0.03 0.02 0.03 0.04 0.02 0.03 0.02 0.03 0.02 0.03 0.02 0.04c0 7.46 2.5 14.33 6.71 19.83v6.57" fill="#6bc9b7"/>
   <path d="m388.95 154.55c-4.21-5.5-6.71-12.37-6.71-19.83 0 0.27 0.01 0.53 0.02 0.8 1.6-1.8 3.77-3.26 6.34-4.09 0.12-0.04 0.23-0.07 0.35-0.1v22.09c-0.32-0.05-0.63-0.11-0.94-0.18 0.3 0.44 0.62 0.87 0.94 1.3v0.01m-6.71-19.87v-0.02 0.02zm0-0.05v-0.02 0.02zm0-0.05v-0.02 0.02zm0-0.05v-0.02 0.02zm0-0.06v-0.03 0.03zm0-0.05v-0.03 0.03zm0-0.05v-0.03 0.03zm0-0.05v-0.03 0.03zm0-0.04c0.1-7.29 2.58-13.99 6.71-19.38v0.01c-4.12 5.39-6.61 12.09-6.71 19.37z" fill="#61bfae"/>
   <path d="m388.95 154.54c-0.32-0.43-0.64-0.86-0.94-1.3 0.31 0.07 0.62 0.13 0.94 0.18v1.12zm-6.69-19.02c-0.01-0.27-0.02-0.53-0.02-0.8v-0.04-0.02-0.03-0.02-0.03-0.02-0.03-0.02-0.04-0.03-0.02-0.03-0.02-0.03-0.02-0.03-0.01c0.1-7.28 2.59-13.98 6.71-19.37v16.42c-0.12 0.03-0.23 0.06-0.35 0.1-2.57 0.83-4.74 2.29-6.34 4.09z" fill="#6bc9b7"/>
   <path d="m336.66 150.43h-31.22v-2.67l28.35-1.79 13.37-35.17-41.72-5.06v-1.37h49.83l-18.61 46.06" fill="#6bc9b7"/>
   <path d="m379.38 195.24h-2.6v-29.89h2.6v29.89zm0-145.73c-0.89-0.024-1.75-0.046-2.6-0.067v-29.971h2.6v30.038z" fill="#379495"/>
   <path d="m379.38 165.35h-2.6v-7.65c0.8 1.33 1.67 2.61 2.6 3.84v3.81m-2.6-53.6v-62.31c0.85 0.021 1.71 0.043 2.6 0.067v58.403c-0.93 1.23-1.8 2.51-2.6 3.84" fill="#4ab6b1"/>
   <path d="m379.38 161.54c-0.93-1.23-1.8-2.51-2.6-3.84v-45.95c0.8-1.33 1.67-2.61 2.6-3.84v16.32c-0.98 3.33-1.51 6.85-1.51 10.49 0 3.65 0.53 7.17 1.51 10.5v16.32" fill="#43aaa8"/>
   <path d="m379.38 145.22c-0.98-3.33-1.51-6.85-1.51-10.5 0-3.64 0.53-7.16 1.51-10.49v20.99z" fill="#4ab6b1"/>
   <path d="m377.92 90.47c-9.54 0-17.3 7.76-17.3 17.3s7.76 17.3 17.3 17.3c9.53 0 17.29-7.76 17.29-17.3s-7.76-17.3-17.29-17.3zm0 35.71c-10.16 0-18.42-8.26-18.42-18.41 0-10.154 8.26-18.414 18.42-18.414 10.15 0 18.41 8.26 18.41 18.414 0 10.15-8.26 18.41-18.41 18.41z" fill="#ec1d27"/>
   <path d="m382.24 107.77c0 2.39-1.94 4.32-4.32 4.32-2.39 0-4.33-1.93-4.33-4.32s1.94-4.33 4.33-4.33c2.38 0 4.32 1.94 4.32 4.33z" fill="#ec1d27"/>
  </g>
 </g>
</svg>
